<?xml version="1.0" encoding="UTF-8" standalone="no"?>
<!-- Created with Inkscape (http://www.inkscape.org/) -->

<svg
   width="456.68137"
   height="240.12427"
   viewBox="0 0 456.68137 240.12427"
   version="1.1"
   id="svg1"
   inkscape:version="1.3.2 (091e20ef0f, 2023-11-25)"
   sodipodi:docname="drawing.svg"
   xmlns:inkscape="http://www.inkscape.org/namespaces/inkscape"
   xmlns:sodipodi="http://sodipodi.sourceforge.net/DTD/sodipodi-0.dtd"
   xmlns="http://www.w3.org/2000/svg"
   xmlns:svg="http://www.w3.org/2000/svg"
   xmlns:ns3="http://www.iki.fi/pav/software/textext/">
  <sodipodi:namedview
     id="namedview1"
     pagecolor="#ffffff"
     bordercolor="#000000"
     borderopacity="0.25"
     inkscape:showpageshadow="2"
     inkscape:pageopacity="0.0"
     inkscape:pagecheckerboard="0"
     inkscape:deskcolor="#d1d1d1"
     inkscape:document-units="px"
     inkscape:zoom="1.9037787"
     inkscape:cx="164.40986"
     inkscape:cy="68.547882"
     inkscape:window-width="1920"
     inkscape:window-height="1003"
     inkscape:window-x="0"
     inkscape:window-y="0"
     inkscape:window-maximized="1"
     inkscape:current-layer="layer1" />
  <defs
     id="defs1">
    <marker
       style="overflow:visible"
       id="DartArrow"
       refX="0"
       refY="0"
       orient="auto-start-reverse"
       inkscape:stockid="Dart arrow"
       markerWidth="1"
       markerHeight="1"
       viewBox="0 0 1 1"
       inkscape:isstock="true"
       inkscape:collect="always"
       preserveAspectRatio="xMidYMid">
      <path
         style="fill:context-stroke;fill-rule:evenodd;stroke:none"
         d="M 0,0 5,-5 -12.5,0 5,5 Z"
         transform="scale(-0.5)"
         id="path6" />
    </marker>
    <defs
       id="id-5a0eacb9-0782-431c-9cae-7d58c43ff2bd">
      <g
         id="id-117ee781-b41d-4dab-8213-29634a6116d3">
        <g
           id="id-fb7546b6-a6a9-4b0c-8536-8280036841df">
          <path
             d="m 4.609375,-3.375 c -0.09375,-0.625 -0.5,-1.1875 -1.28125,-1.1875 -0.609375,0 -1.25,0.171875 -2.03125,0.9375 -0.828125,0.828125 -0.890625,1.765625 -0.890625,2.0625 0,0.625 0.4375,1.78125 1.828125,1.78125 2.375,0 3.40625,-3.34375 3.40625,-4.78125 0,-1.578125 -0.921875,-2.578125 -2.15625,-2.578125 -1.4375,0 -1.90625,1.296875 -1.90625,1.578125 0,0.140625 0.09375,0.34375 0.390625,0.34375 0.328125,0 0.53125,-0.296875 0.53125,-0.515625 0,-0.359375 -0.3125,-0.359375 -0.46875,-0.359375 0.4375,-0.734375 1.15625,-0.796875 1.4375,-0.796875 0.734375,0 1.421875,0.515625 1.421875,1.8125 0,0.390625 -0.0625,0.890625 -0.265625,1.703125 z m -2.34375,3.3125 c -1.09375,0 -1.09375,-1.03125 -1.09375,-1.125 0,-0.265625 0.25,-1.65625 0.65625,-2.265625 0.390625,-0.5625 0.890625,-0.890625 1.5,-0.890625 1.09375,0 1.109375,1.125 1.109375,1.328125 0,0.71875 -0.640625,2.953125 -2.171875,2.953125 z m 0,0"
             id="id-205020aa-f5ed-4e86-8d88-be7de88282c8" />
        </g>
        <g
           id="id-aa965a13-4a71-4ae8-96f4-c6b48950345b">
          <path
             d="M 6.75,-1.609375 H 6.5 c -0.046875,0.25 -0.09375,0.484375 -0.1875,0.71875 -0.046875,0.15625 -0.078125,0.25 -0.65625,0.25 H 4.859375 C 5,-1.203125 5.296875,-1.6875 5.75,-2.34375 c 0.46875,-0.703125 0.875,-1.390625 0.875,-2.1875 0,-1.375 -1.34375,-2.5 -3.03125,-2.5 -1.703125,0 -3.03125,1.140625 -3.03125,2.5 0,0.796875 0.40625,1.484375 0.875,2.1875 0.4375,0.65625 0.75,1.140625 0.890625,1.703125 H 1.53125 C 0.953125,-0.640625 0.921875,-0.734375 0.875,-0.875 0.78125,-1.109375 0.734375,-1.359375 0.6875,-1.609375 h -0.25 L 0.765625,0 h 1.59375 c 0.21875,0 0.25,0 0.25,-0.203125 0,-0.703125 -0.3125,-1.578125 -0.53125,-2.21875 -0.21875,-0.578125 -0.5,-1.359375 -0.5,-2.109375 0,-1.59375 1.109375,-2.28125 2.015625,-2.28125 0.953125,0 2.015625,0.71875 2.015625,2.28125 0,0.75 -0.28125,1.5 -0.5625,2.3125 -0.15625,0.421875 -0.46875,1.328125 -0.46875,2.015625 C 4.578125,0 4.609375,0 4.828125,0 h 1.59375 z m 0,0"
             id="id-4dfbfb5c-66bc-4034-84a8-7061e2850c59" />
        </g>
      </g>
    </defs>
    <defs
       id="id-6aec6a0e-cb21-4e2e-8ad2-ac8dbca5052d">
      <g
         id="id-3de58253-338e-44a6-a5a4-c1429a820584">
        <g
           id="id-e2f7c499-f7eb-4cbd-a56c-98ce71b663a4">
          <path
             d="M 6.75,-1.609375 H 6.5 c -0.046875,0.25 -0.09375,0.484375 -0.1875,0.71875 -0.046875,0.15625 -0.078125,0.25 -0.65625,0.25 H 4.859375 C 5,-1.203125 5.296875,-1.6875 5.75,-2.34375 c 0.46875,-0.703125 0.875,-1.390625 0.875,-2.1875 0,-1.375 -1.34375,-2.5 -3.03125,-2.5 -1.703125,0 -3.03125,1.140625 -3.03125,2.5 0,0.796875 0.40625,1.484375 0.875,2.1875 0.4375,0.65625 0.75,1.140625 0.890625,1.703125 H 1.53125 C 0.953125,-0.640625 0.921875,-0.734375 0.875,-0.875 0.78125,-1.109375 0.734375,-1.359375 0.6875,-1.609375 h -0.25 L 0.765625,0 h 1.59375 c 0.21875,0 0.25,0 0.25,-0.203125 0,-0.703125 -0.3125,-1.578125 -0.53125,-2.21875 -0.21875,-0.578125 -0.5,-1.359375 -0.5,-2.109375 0,-1.59375 1.109375,-2.28125 2.015625,-2.28125 0.953125,0 2.015625,0.71875 2.015625,2.28125 0,0.75 -0.28125,1.5 -0.5625,2.3125 -0.15625,0.421875 -0.46875,1.328125 -0.46875,2.015625 C 4.578125,0 4.609375,0 4.828125,0 h 1.59375 z m 0,0"
             id="id-16dfc787-70b0-44c2-988f-883894b2f49d" />
        </g>
        <g
           id="id-82153fda-b38c-4849-a7af-eac77b011342">
          <path
             d="m 2.265625,-4.359375 c 0,-0.109375 -0.09375,-0.265625 -0.28125,-0.265625 -0.1875,0 -0.390625,0.1875 -0.390625,0.390625 0,0.109375 0.078125,0.265625 0.28125,0.265625 0.1875,0 0.390625,-0.203125 0.390625,-0.390625 z M 0.84375,-0.8125 c -0.03125,0.09375 -0.0625,0.171875 -0.0625,0.296875 0,0.328125 0.265625,0.578125 0.65625,0.578125 0.6875,0 1,-0.953125 1,-1.0625 0,-0.09375 -0.09375,-0.09375 -0.109375,-0.09375 -0.09375,0 -0.109375,0.046875 -0.140625,0.125 -0.15625,0.5625 -0.453125,0.84375 -0.734375,0.84375 -0.140625,0 -0.171875,-0.09375 -0.171875,-0.25 0,-0.15625 0.046875,-0.28125 0.109375,-0.4375 C 1.46875,-1 1.546875,-1.1875 1.609375,-1.375 1.671875,-1.546875 1.9375,-2.171875 1.953125,-2.265625 1.984375,-2.328125 2,-2.40625 2,-2.484375 2,-2.8125 1.71875,-3.078125 1.34375,-3.078125 0.640625,-3.078125 0.328125,-2.125 0.328125,-2 c 0,0.078125 0.09375,0.078125 0.125,0.078125 0.09375,0 0.09375,-0.03125 0.125,-0.109375 C 0.75,-2.625 1.0625,-2.875 1.3125,-2.875 c 0.109375,0 0.171875,0.046875 0.171875,0.234375 0,0.171875 -0.03125,0.265625 -0.203125,0.703125 z m 0,0"
             id="id-4ff3af70-a8bb-40d4-b94f-0b1c0a38ad04" />
        </g>
        <g
           id="id-2e9a8779-1829-472e-b629-d1d6e786102a">
          <path
             d="m 4.609375,-3.375 c -0.09375,-0.625 -0.5,-1.1875 -1.28125,-1.1875 -0.609375,0 -1.25,0.171875 -2.03125,0.9375 -0.828125,0.828125 -0.890625,1.765625 -0.890625,2.0625 0,0.625 0.4375,1.78125 1.828125,1.78125 2.375,0 3.40625,-3.34375 3.40625,-4.78125 0,-1.578125 -0.921875,-2.578125 -2.15625,-2.578125 -1.4375,0 -1.90625,1.296875 -1.90625,1.578125 0,0.140625 0.09375,0.34375 0.390625,0.34375 0.328125,0 0.53125,-0.296875 0.53125,-0.515625 0,-0.359375 -0.3125,-0.359375 -0.46875,-0.359375 0.4375,-0.734375 1.15625,-0.796875 1.4375,-0.796875 0.734375,0 1.421875,0.515625 1.421875,1.8125 0,0.390625 -0.0625,0.890625 -0.265625,1.703125 z m -2.34375,3.3125 c -1.09375,0 -1.09375,-1.03125 -1.09375,-1.125 0,-0.265625 0.25,-1.65625 0.65625,-2.265625 0.390625,-0.5625 0.890625,-0.890625 1.5,-0.890625 1.09375,0 1.109375,1.125 1.109375,1.328125 0,0.71875 -0.640625,2.953125 -2.171875,2.953125 z m 0,0"
             id="id-f4761923-7b62-4bdf-ae88-fd2510554a1e" />
        </g>
      </g>
    </defs>
  </defs>
  <g
     inkscape:label="Layer 1"
     inkscape:groupmode="layer"
     id="layer1"
     transform="translate(-47.063758,-33.361794)">
    <path
       id="path19"
       style="fill:#000000;fill-opacity:0.405856;stroke:#000000;stroke-width:3.42465;stroke-dasharray:none;stroke-opacity:1"
       d="m 415.6304,44.278582 c -7.17801,-0.259598 -21.62287,7.481525 -43.10742,25.880855 -40.4415,34.634063 29.49064,20.00805 32.07031,44.746103 2.06277,19.78126 -34.08672,17.4008 -23.96093,32.63086 16.31486,24.53895 119.99722,22.25775 94.04101,-5.52539 -25.9562,-27.78314 -80.56609,-30.72816 -57.16992,-80.185553 5.13733,-10.85986 4.46049,-17.317818 -1.87305,-17.546875 z m 17.52735,82.185548 a 11.709839,18.946917 60 0 1 8.94726,4.39453 11.709839,18.946917 60 0 1 -10.55469,19.61524 11.709839,18.946917 60 0 1 -22.26367,-0.66797 11.709839,18.946917 60 0 1 10.55469,-19.61328 11.709839,18.946917 60 0 1 13.31641,-3.72852 z" />
    <path
       style="fill:none;fill-opacity:0.405856;stroke:#000000;stroke-width:3.42465;stroke-dasharray:none;stroke-opacity:1"
       d="m 91.761633,251.07387 c 0,0 14.531147,-1.56787 -8.844716,-20.4543 -14.956595,-12.08412 -8.337605,-21.55284 6.53669,-15.53313 8.522279,3.44901 28.524573,0.62009 13.312703,-19.89001 -6.079943,-8.19757 19.95508,1.89067 25.37051,-18.28558 7.83018,-29.17293 32.04509,-17.40548 16.45988,2.09226 -5.57921,6.97983 -10.10045,39.53234 5.59974,28.3171 5.96167,-4.25864 29.31032,-8.4259 16.92941,10.0121 -6.22689,9.27326 12.07581,22.09396 18.67559,28.21517"
       id="path1"
       sodipodi:nodetypes="csssssssc" />
    <path
       style="fill:#000000;fill-opacity:0.405856;stroke:#000000;stroke-width:3.425;stroke-dasharray:none;stroke-opacity:1"
       d="m 230.83117,193.14827 c -10.1258,-15.23007 26.02278,-12.8497 23.96001,-32.63098 -2.57968,-24.73807 -72.51093,-10.11194 -32.06939,-44.74603 40.44154,-34.634085 55.93927,-31.501575 44.97961,-8.33385 -23.39619,49.45744 31.21334,52.4013 57.16957,80.18446 25.95623,27.78317 -77.72492,30.06538 -94.0398,5.5264 z"
       id="path2"
       sodipodi:nodetypes="sszszs" />
    <g
       fill="#000000"
       fill-opacity="1"
       id="id-7c0ae2ae-f097-420a-8982-b1c8f7e9940e"
       transform="matrix(2.66666,0,0,2.66666,-169.41777,-161.87021)">
      <g
         transform="translate(148.712,134.765)"
         id="g2753" />
    </g>
    <g
       fill="#000000"
       fill-opacity="1"
       id="id-90bc05e6-487d-47ef-ad7f-9cc3d4e2f350"
       transform="matrix(2.66666,0,0,2.66666,-167.54759,-183.80755)">
      <g
         transform="translate(154.555,134.765)"
         id="g7599">
        <path
           id="id-0f5bf622-2567-431d-b4aa-a8b8c1ef380a"
           d="m 22.975729,-28.201987 h -0.206571 c -0.03873,0.206572 -0.07747,0.400233 -0.154929,0.593894 -0.03873,0.129107 -0.06456,0.206572 -0.542251,0.206572 h -0.658447 c 0.116196,-0.464787 0.3615,-0.86502 0.735911,-1.40727 0.387322,-0.580983 0.723002,-1.149056 0.723002,-1.807503 0,-1.136145 -1.110324,-2.065717 -2.504683,-2.065717 -1.40727,0 -2.504682,0.942483 -2.504682,2.065717 0,0.658447 0.335679,1.22652 0.723001,1.807503 0.361501,0.54225 0.619715,0.942483 0.735912,1.40727 h -0.658447 c -0.477698,0 -0.503519,-0.07747 -0.542251,-0.193661 -0.07747,-0.193661 -0.116197,-0.400233 -0.154929,-0.606805 h -0.206572 l 0.271126,1.329806 h 1.316894 c 0.180751,0 0.206572,0 0.206572,-0.16784 0,-0.580983 -0.258215,-1.303984 -0.438965,-1.833324 -0.18075,-0.477697 -0.413143,-1.123234 -0.413143,-1.742949 0,-1.316895 0.916662,-1.884967 1.665484,-1.884967 0.787555,0 1.665485,0.593894 1.665485,1.884967 0,0.619715 -0.232393,1.23943 -0.464787,1.910788 -0.129107,0.34859 -0.387322,1.097413 -0.387322,1.665485 0,0.16784 0.02582,0.16784 0.206572,0.16784 h 1.316895 z m 0,0 M 16.378965,-29.6609 c -0.07747,-0.516429 -0.413144,-0.981215 -1.058681,-0.981215 -0.503518,0 -1.032858,0.142018 -1.678395,0.774644 -0.684269,0.684268 -0.735912,1.458912 -0.735912,1.704216 0,0.51643 0.361501,1.471824 1.510556,1.471824 1.962432,0 2.81454,-2.762897 2.81454,-3.950684 0,-1.303984 -0.761733,-2.130271 -1.781681,-2.130271 -1.187788,0 -1.57511,1.07159 -1.57511,1.303984 0,0.116196 0.07747,0.284036 0.322769,0.284036 0.271125,0 0.438965,-0.245304 0.438965,-0.426054 0,-0.296947 -0.258215,-0.296947 -0.387322,-0.296947 0.3615,-0.606805 0.955394,-0.658448 1.187787,-0.658448 0.606804,0 1.174877,0.426055 1.174877,1.497645 0,0.322769 -0.05164,0.735912 -0.219483,1.40727 z m -1.93661,2.737076 c -0.903752,0 -0.903752,-0.852109 -0.903752,-0.929573 0,-0.219483 0.206572,-1.368538 0.542251,-1.872056 0.322768,-0.464787 0.735912,-0.735912 1.23943,-0.735912 0.903752,0 0.916662,0.929573 0.916662,1.097412 0,0.593894 -0.52934,2.440129 -1.794591,2.440129 z m 0,0"
           style="stroke-width:0.826287" />
      </g>
    </g>
    <g
       fill="#000000"
       fill-opacity="1"
       id="id-820fd577-3528-4f7a-8d52-629505276aca"
       transform="matrix(2.2034262,0,0,2.2034262,-92.750037,-99.442514)">
      <g
         transform="translate(165.068,134.765)"
         id="g9051">
        <path
           d="M 6.75,-1.609375 H 6.5 c -0.046875,0.25 -0.09375,0.484375 -0.1875,0.71875 -0.046875,0.15625 -0.078125,0.25 -0.65625,0.25 H 4.859375 C 5,-1.203125 5.296875,-1.6875 5.75,-2.34375 c 0.46875,-0.703125 0.875,-1.390625 0.875,-2.1875 0,-1.375 -1.34375,-2.5 -3.03125,-2.5 -1.703125,0 -3.03125,1.140625 -3.03125,2.5 0,0.796875 0.40625,1.484375 0.875,2.1875 0.4375,0.65625 0.75,1.140625 0.890625,1.703125 H 1.53125 C 0.953125,-0.640625 0.921875,-0.734375 0.875,-0.875 0.78125,-1.109375 0.734375,-1.359375 0.6875,-1.609375 h -0.25 L 0.765625,0 h 1.59375 c 0.21875,0 0.25,0 0.25,-0.203125 0,-0.703125 -0.3125,-1.578125 -0.53125,-2.21875 -0.21875,-0.578125 -0.5,-1.359375 -0.5,-2.109375 0,-1.59375 1.109375,-2.28125 2.015625,-2.28125 0.953125,0 2.015625,0.71875 2.015625,2.28125 0,0.75 -0.28125,1.5 -0.5625,2.3125 -0.15625,0.421875 -0.46875,1.328125 -0.46875,2.015625 C 4.578125,0 4.609375,0 4.828125,0 h 1.59375 z m 0,0"
           id="id-3abeef1c-8f9c-400c-a751-8abba565fa27" />
      </g>
    </g>
    <g
       fill="#000000"
       fill-opacity="1"
       id="g4"
       transform="matrix(2.66666,0,0,2.66666,-261.19584,-52.651026)">
      <g
         transform="translate(154.555,134.765)"
         id="g3">
        <path
           id="path3"
           d="m 22.975729,-28.201987 h -0.206571 c -0.03873,0.206572 -0.07747,0.400233 -0.154929,0.593894 -0.03873,0.129107 -0.06456,0.206572 -0.542251,0.206572 h -0.658447 c 0.116196,-0.464787 0.3615,-0.86502 0.735911,-1.40727 0.387322,-0.580983 0.723002,-1.149056 0.723002,-1.807503 0,-1.136145 -1.110324,-2.065717 -2.504683,-2.065717 -1.40727,0 -2.504682,0.942483 -2.504682,2.065717 0,0.658447 0.335679,1.22652 0.723001,1.807503 0.361501,0.54225 0.619715,0.942483 0.735912,1.40727 h -0.658447 c -0.477698,0 -0.503519,-0.07747 -0.542251,-0.193661 -0.07747,-0.193661 -0.116197,-0.400233 -0.154929,-0.606805 h -0.206572 l 0.271126,1.329806 h 1.316894 c 0.180751,0 0.206572,0 0.206572,-0.16784 0,-0.580983 -0.258215,-1.303984 -0.438965,-1.833324 -0.18075,-0.477697 -0.413143,-1.123234 -0.413143,-1.742949 0,-1.316895 0.916662,-1.884967 1.665484,-1.884967 0.787555,0 1.665485,0.593894 1.665485,1.884967 0,0.619715 -0.232393,1.23943 -0.464787,1.910788 -0.129107,0.34859 -0.387322,1.097413 -0.387322,1.665485 0,0.16784 0.02582,0.16784 0.206572,0.16784 h 1.316895 z m 0,0 M 16.378965,-29.6609 c -0.07747,-0.516429 -0.413144,-0.981215 -1.058681,-0.981215 -0.503518,0 -1.032858,0.142018 -1.678395,0.774644 -0.684269,0.684268 -0.735912,1.458912 -0.735912,1.704216 0,0.51643 0.361501,1.471824 1.510556,1.471824 1.962432,0 2.81454,-2.762897 2.81454,-3.950684 0,-1.303984 -0.761733,-2.130271 -1.781681,-2.130271 -1.187788,0 -1.57511,1.07159 -1.57511,1.303984 0,0.116196 0.07747,0.284036 0.322769,0.284036 0.271125,0 0.438965,-0.245304 0.438965,-0.426054 0,-0.296947 -0.258215,-0.296947 -0.387322,-0.296947 0.3615,-0.606805 0.955394,-0.658448 1.187787,-0.658448 0.606804,0 1.174877,0.426055 1.174877,1.497645 0,0.322769 -0.05164,0.735912 -0.219483,1.40727 z m -1.93661,2.737076 c -0.903752,0 -0.903752,-0.852109 -0.903752,-0.929573 0,-0.219483 0.206572,-1.368538 0.542251,-1.872056 0.322768,-0.464787 0.735912,-0.735912 1.23943,-0.735912 0.903752,0 0.916662,0.929573 0.916662,1.097412 0,0.593894 -0.52934,2.440129 -1.794591,2.440129 z m 0,0"
           style="stroke-width:0.826287" />
      </g>
    </g>
    <g
       id="g10"
       transform="rotate(-45,178.17436,110.48564)">
      <path
         style="fill:none;fill-opacity:0.405856;stroke:#000000;stroke-width:3;stroke-dasharray:none;stroke-opacity:1;marker-end:url(#DartArrow)"
         d="M 139.99996,39.937711 V 82.345817"
         id="path4" />
      <path
         id="path10"
         style="fill:none;fill-opacity:0.405856;stroke:#000000;stroke-width:3;stroke-dasharray:none;stroke-opacity:1"
         d="m 98.470526,6.271083 83.058864,-2e-6 m -83.058864,8.041659 83.058864,-2e-6 m -83.058864,8.041659 83.058864,-2e-6 m -83.058864,8.041659 83.058864,-2e-6 m -83.058864,8.041659 83.058864,-2e-6" />
    </g>
    <path
       style="fill:none;fill-opacity:0.403922;stroke:#0bca14;stroke-width:3;stroke-dasharray:none;stroke-opacity:1"
       d="m 199.85261,260.09848 11.26627,11.26626 19.24229,-19.24229"
       id="path20" />
    <path
       style="fill:none;fill-opacity:0.403922;stroke:#0bca14;stroke-width:3;stroke-dasharray:none;stroke-opacity:1"
       d="m 326.68192,217.15315 11.26627,11.26626 19.24229,-19.24229"
       id="path21" />
    <path
       id="path25"
       style="fill:none;fill-opacity:0.403922;stroke:#ca0b0b;stroke-width:3;stroke-dasharray:none;stroke-opacity:1"
       d="m 491.41819,177.07117 11.26626,-11.26626 m -1e-5,23.40173 -11.26626,-11.26626 m 10e-6,-0.86921 -11.26626,11.26627 m -10e-6,-21.66332 11.26627,11.26626" />
    <g
       transform="matrix(2.2523396,0,0,2.2523396,138.11399,63.917561)"
       ns3:version="1.10.2"
       ns3:texconverter="pdflatex"
       ns3:pdfconverter="inkscape"
       ns3:text="\\(\\phi(\\mathbf{r})\\)"
       ns3:preamble="/home/ar/.config/inkscape/extensions/textext/default_packages.tex"
       ns3:scale="2.0"
       ns3:alignment="middle center"
       ns3:stroke-to-path="0"
       ns3:inkscapeversion="1.3.2"
       id="g9006"
       ns3:jacobian_sqrt="2.66666">
      <defs
         id="id-ed342d02-15e0-473d-8927-497b7c3d7e0c">
        <g
           id="id-0439b42a-f911-413e-9aff-223438173029">
          <g
             id="id-7e8a1c79-904d-4e5e-9231-9695f54afcc2">
            <path
               d="m 4.359375,-6.671875 c 0,-0.03125 0.03125,-0.140625 0.03125,-0.140625 0,-0.015625 0,-0.109375 -0.125,-0.109375 -0.09375,0 -0.109375,0.03125 -0.15625,0.203125 L 3.53125,-4.421875 c -1.578125,0.0625 -3.046875,1.375 -3.046875,2.734375 0,0.953125 0.703125,1.734375 1.921875,1.8125 C 2.328125,0.421875 2.25,0.75 2.171875,1.0625 c -0.125,0.46875 -0.21875,0.84375 -0.21875,0.875 0,0.09375 0.078125,0.109375 0.125,0.109375 C 2.125,2.046875 2.140625,2.03125 2.171875,2 2.1875,1.984375 2.25,1.75 2.28125,1.609375 L 2.65625,0.125 c 1.609375,-0.0625 3.0625,-1.40625 3.0625,-2.734375 0,-0.796875 -0.53125,-1.703125 -1.921875,-1.8125 z m -1.90625,6.578125 c -0.59375,-0.03125 -1.3125,-0.390625 -1.3125,-1.375 0,-1.203125 0.859375,-2.59375 2.34375,-2.734375 z m 1.28125,-4.109375 c 0.765625,0.046875 1.328125,0.5 1.328125,1.375 0,1.1875 -0.859375,2.609375 -2.34375,2.734375 z m 0,0"
               id="id-4b4ff69a-ecca-4611-99cb-d211cdac2fbf" />
          </g>
          <g
             id="id-0d3ee635-ddb7-4587-9f70-6cf5c7e563a3">
            <path
               d="m 3.296875,2.390625 c 0,-0.03125 0,-0.046875 -0.171875,-0.21875 C 1.890625,0.921875 1.5625,-0.96875 1.5625,-2.5 c 0,-1.734375 0.375,-3.46875 1.609375,-4.703125 0.125,-0.125 0.125,-0.140625 0.125,-0.171875 0,-0.078125 -0.03125,-0.109375 -0.09375,-0.109375 -0.109375,0 -1,0.6875 -1.59375,1.953125 -0.5,1.09375 -0.625,2.203125 -0.625,3.03125 0,0.78125 0.109375,1.984375 0.65625,3.125 C 2.25,1.84375 3.09375,2.5 3.203125,2.5 c 0.0625,0 0.09375,-0.03125 0.09375,-0.109375 z m 0,0"
               id="id-55e60073-43d9-47d0-a754-a071e776011f" />
          </g>
          <g
             id="id-0fa1125d-6f23-4da1-8f1b-640c1fc30c36">
            <path
               d="m 2.875,-2.5 c 0,-0.765625 -0.109375,-1.96875 -0.65625,-3.109375 -0.59375,-1.21875 -1.453125,-1.875 -1.546875,-1.875 -0.0625,0 -0.109375,0.046875 -0.109375,0.109375 0,0.03125 0,0.046875 0.1875,0.234375 0.984375,0.984375 1.546875,2.5625 1.546875,4.640625 0,1.71875 -0.359375,3.46875 -1.59375,4.71875 C 0.5625,2.34375 0.5625,2.359375 0.5625,2.390625 0.5625,2.453125 0.609375,2.5 0.671875,2.5 0.765625,2.5 1.671875,1.8125 2.25,0.546875 2.765625,-0.546875 2.875,-1.65625 2.875,-2.5 Z m 0,0"
               id="id-15db283d-ff49-4844-9832-9601a444e968" />
          </g>
          <g
             id="id-b82e9af7-df7f-4ed6-9880-35df5d2ff0ad">
            <path
               d="m 2.03125,-3.359375 v -1.125 L 0.375,-4.40625 v 0.46875 c 0.609375,0 0.6875,0 0.6875,0.390625 V -0.46875 H 0.375 V 0 c 0.34375,-0.015625 0.796875,-0.03125 1.25,-0.03125 0.375,0 1.015625,0 1.375,0.03125 V -0.46875 H 2.140625 v -1.75 c 0,-0.6875 0.234375,-1.90625 1.234375,-1.90625 0,0.015625 -0.1875,0.171875 -0.1875,0.453125 0,0.40625 0.328125,0.609375 0.609375,0.609375 0.296875,0 0.609375,-0.203125 0.609375,-0.609375 0,-0.53125 -0.53125,-0.8125 -1.0625,-0.8125 -0.6875,0 -1.09375,0.5 -1.3125,1.125 z m 0,0"
               id="id-2a630b1f-dc7a-45a4-8d17-94a0b25ab042" />
          </g>
        </g>
      </defs>
      <g
         fill="#000000"
         fill-opacity="1"
         id="id-84439e2b-7b11-44e1-9780-b891c2e75e90"
         transform="translate(-149.196,-127.281)">
        <g
           transform="translate(148.712,134.765)"
           id="g6474">
          <path
             d="m 4.359375,-6.671875 c 0,-0.03125 0.03125,-0.140625 0.03125,-0.140625 0,-0.015625 0,-0.109375 -0.125,-0.109375 -0.09375,0 -0.109375,0.03125 -0.15625,0.203125 L 3.53125,-4.421875 c -1.578125,0.0625 -3.046875,1.375 -3.046875,2.734375 0,0.953125 0.703125,1.734375 1.921875,1.8125 C 2.328125,0.421875 2.25,0.75 2.171875,1.0625 c -0.125,0.46875 -0.21875,0.84375 -0.21875,0.875 0,0.09375 0.078125,0.109375 0.125,0.109375 C 2.125,2.046875 2.140625,2.03125 2.171875,2 2.1875,1.984375 2.25,1.75 2.28125,1.609375 L 2.65625,0.125 c 1.609375,-0.0625 3.0625,-1.40625 3.0625,-2.734375 0,-0.796875 -0.53125,-1.703125 -1.921875,-1.8125 z m -1.90625,6.578125 c -0.59375,-0.03125 -1.3125,-0.390625 -1.3125,-1.375 0,-1.203125 0.859375,-2.59375 2.34375,-2.734375 z m 1.28125,-4.109375 c 0.765625,0.046875 1.328125,0.5 1.328125,1.375 0,1.1875 -0.859375,2.609375 -2.34375,2.734375 z m 0,0"
             id="id-7cc8c58a-d0c5-4786-9489-8ac3b922ca27" />
        </g>
      </g>
      <g
         fill="#000000"
         fill-opacity="1"
         id="id-78604bc1-5353-41b6-a0ac-fee01fdd2884"
         transform="translate(-149.196,-127.281)">
        <g
           transform="translate(154.648,134.765)"
           id="g5686">
          <path
             d="m 3.296875,2.390625 c 0,-0.03125 0,-0.046875 -0.171875,-0.21875 C 1.890625,0.921875 1.5625,-0.96875 1.5625,-2.5 c 0,-1.734375 0.375,-3.46875 1.609375,-4.703125 0.125,-0.125 0.125,-0.140625 0.125,-0.171875 0,-0.078125 -0.03125,-0.109375 -0.09375,-0.109375 -0.109375,0 -1,0.6875 -1.59375,1.953125 -0.5,1.09375 -0.625,2.203125 -0.625,3.03125 0,0.78125 0.109375,1.984375 0.65625,3.125 C 2.25,1.84375 3.09375,2.5 3.203125,2.5 c 0.0625,0 0.09375,-0.03125 0.09375,-0.109375 z m 0,0"
             id="id-b497e796-fd4c-4cda-8e37-a31f2154312a" />
        </g>
      </g>
      <g
         fill="#000000"
         fill-opacity="1"
         id="id-346f2a81-d811-4a0b-8f76-19119500bc2e"
         transform="translate(-149.196,-127.281)">
        <g
           transform="translate(158.523,134.765)"
           id="g4964">
          <path
             d="m 2.03125,-3.359375 v -1.125 L 0.375,-4.40625 v 0.46875 c 0.609375,0 0.6875,0 0.6875,0.390625 V -0.46875 H 0.375 V 0 c 0.34375,-0.015625 0.796875,-0.03125 1.25,-0.03125 0.375,0 1.015625,0 1.375,0.03125 V -0.46875 H 2.140625 v -1.75 c 0,-0.6875 0.234375,-1.90625 1.234375,-1.90625 0,0.015625 -0.1875,0.171875 -0.1875,0.453125 0,0.40625 0.328125,0.609375 0.609375,0.609375 0.296875,0 0.609375,-0.203125 0.609375,-0.609375 0,-0.53125 -0.53125,-0.8125 -1.0625,-0.8125 -0.6875,0 -1.09375,0.5 -1.3125,1.125 z m 0,0"
             id="id-31b701de-65c2-47b0-a1eb-b30a92568dfa" />
        </g>
      </g>
      <g
         fill="#000000"
         fill-opacity="1"
         id="id-7fbcf2ef-b0c3-44e5-b466-aaba34894bbd"
         transform="translate(-149.196,-127.281)">
        <g
           transform="translate(163.241,134.765)"
           id="g2121">
          <path
             d="m 2.875,-2.5 c 0,-0.765625 -0.109375,-1.96875 -0.65625,-3.109375 -0.59375,-1.21875 -1.453125,-1.875 -1.546875,-1.875 -0.0625,0 -0.109375,0.046875 -0.109375,0.109375 0,0.03125 0,0.046875 0.1875,0.234375 0.984375,0.984375 1.546875,2.5625 1.546875,4.640625 0,1.71875 -0.359375,3.46875 -1.59375,4.71875 C 0.5625,2.34375 0.5625,2.359375 0.5625,2.390625 0.5625,2.453125 0.609375,2.5 0.671875,2.5 0.765625,2.5 1.671875,1.8125 2.25,0.546875 2.765625,-0.546875 2.875,-1.65625 2.875,-2.5 Z m 0,0"
             id="id-9ce9f97c-2ea4-45de-9cb4-64cf3538aa0f" />
        </g>
      </g>
    </g>
    <text
       xml:space="preserve"
       style="font-size:14.4571px;font-family:CMU;-inkscape-font-specification:CMU;fill:none;fill-opacity:0.403922;stroke:#ca0b0b;stroke-width:3.61429;stroke-dasharray:none;stroke-opacity:1"
       x="352.11459"
       y="259.70282"
       id="text28"><tspan
         sodipodi:role="line"
         id="tspan28"
         x="352.11459"
         y="259.70282"
         style="fill:#000000;fill-opacity:1;stroke:none;stroke-width:3.61429">Types of scatterers</tspan></text>
  </g>
</svg>
