<?xml version="1.0" encoding="UTF-8" standalone="no"?>
<!-- Created with Inkscape (http://www.inkscape.org/) -->

<svg
   version="1.1"
   id="svg1"
   width="600.00043"
   height="506.34604"
   viewBox="0 0 600.00043 506.34604"
   sodipodi:docname="logo.svg"
   inkscape:version="1.3.2 (091e20ef0f, 2023-11-25)"
   xmlns:inkscape="http://www.inkscape.org/namespaces/inkscape"
   xmlns:sodipodi="http://sodipodi.sourceforge.net/DTD/sodipodi-0.dtd"
   xmlns="http://www.w3.org/2000/svg"
   xmlns:svg="http://www.w3.org/2000/svg">
  <defs
     id="defs1">
    <clipPath
       clipPathUnits="userSpaceOnUse"
       id="clipPath48">
      <path
         d="M 93,143 H 438 V 373.5 H 93 Z"
         id="path48" />
    </clipPath>
    <clipPath
       clipPathUnits="userSpaceOnUse"
       id="clipPath54">
      <path
         d="M 87,136 H 438 V 373.5 H 87 Z"
         id="path54" />
    </clipPath>
    <clipPath
       clipPathUnits="userSpaceOnUse"
       id="clipPath56">
      <path
         d="M 87,136 H 438 V 373.5 H 87 Z"
         id="path56" />
    </clipPath>
    <clipPath
       clipPathUnits="userSpaceOnUse"
       id="clipPath58">
      <path
         d="M 87,136 H 438 V 373.5 H 87 Z"
         id="path58" />
    </clipPath>
    <clipPath
       clipPathUnits="userSpaceOnUse"
       id="clipPath60">
      <path
         d="M 87,136 H 438 V 373.5 H 87 Z"
         id="path60" />
    </clipPath>
    <clipPath
       clipPathUnits="userSpaceOnUse"
       id="clipPath62">
      <path
         d="M 36,78 H 438 V 373.5 H 36 Z"
         id="path62" />
    </clipPath>
    <clipPath
       clipPathUnits="userSpaceOnUse"
       id="clipPath64">
      <path
         d="M 36,78 H 438 V 373.5 H 36 Z"
         id="path64" />
    </clipPath>
    <clipPath
       clipPathUnits="userSpaceOnUse"
       id="clipPath66">
      <path
         d="M 36,78 H 438 V 373.5 H 36 Z"
         id="path66" />
    </clipPath>
    <clipPath
       clipPathUnits="userSpaceOnUse"
       id="clipPath68">
      <path
         d="M 36,78 H 438 V 373.5 H 36 Z"
         id="path68" />
    </clipPath>
    <clipPath
       clipPathUnits="userSpaceOnUse"
       id="clipPath70">
      <path
         d="M 36,78 H 438 V 373.5 H 36 Z"
         id="path70" />
    </clipPath>
    <clipPath
       clipPathUnits="userSpaceOnUse"
       id="clipPath72">
      <path
         d="M 36,78 H 438 V 373.5 H 36 Z"
         id="path72" />
    </clipPath>
    <clipPath
       clipPathUnits="userSpaceOnUse"
       id="clipPath74">
      <path
         d="M 36,78 H 438 V 373.5 H 36 Z"
         id="path74" />
    </clipPath>
    <clipPath
       clipPathUnits="userSpaceOnUse"
       id="clipPath76">
      <path
         d="M 36,78 H 438 V 373.5 H 36 Z"
         id="path76" />
    </clipPath>
    <clipPath
       clipPathUnits="userSpaceOnUse"
       id="clipPath74-9">
      <g
         id="g76"
         transform="matrix(0.17719373,0,0,0.17719373,73.318711,150.43952)">
        <g
           id="g75"
           transform="translate(-2.3955756e-6,1.8876608e-5)">
          <path
             d="M 398.89271,-200.00434 H 523.0506 V -58.915834 H 398.89271 Z m 0,0"
             id="path74-2"
             style="stroke-width:5.64354" />
        </g>
      </g>
    </clipPath>
    <clipPath
       clipPathUnits="userSpaceOnUse"
       id="clipPath82">
      <g
         id="g85">
        <g
           id="g84">
          <g
             id="g83">
            <path
               d="M 396.41522,-139.76981 H 521.38805 V 5.1986796 H 396.41522 Z m 0,0"
               id="path82-2"
               style="stroke-width:4.99891" />
          </g>
        </g>
      </g>
    </clipPath>
    <clipPath
       clipPathUnits="userSpaceOnUse"
       id="clipPath2">
      <g
         id="g3"
         transform="matrix(0.58359138,0,0,0.58359138,61.922576,56.952651)">
        <rect
           style="fill:#000000;fill-opacity:0.405856;stroke:none;stroke-width:18.6466;stroke-opacity:1"
           id="rect2"
           width="600.00043"
           height="506.34604"
           x="9.5125215e-06"
           y="36.066296"
           rx="100" />
      </g>
    </clipPath>
    <clipPath
       clipPathUnits="userSpaceOnUse"
       id="clipPath3">
      <g
         id="g4"
         transform="matrix(0.58359138,0,0,0.58359138,61.922576,56.952651)">
        <rect
           style="fill:#000000;fill-opacity:0.405856;stroke:none;stroke-width:18.6466;stroke-opacity:1"
           id="rect3"
           width="600.00043"
           height="506.34604"
           x="9.5125215e-06"
           y="36.066296"
           rx="100" />
      </g>
    </clipPath>
    <clipPath
       clipPathUnits="userSpaceOnUse"
       id="clipPath4">
      <g
         id="g5"
         transform="matrix(0.58359138,0,0,0.58359138,61.922576,56.952651)">
        <rect
           style="fill:#000000;fill-opacity:0.405856;stroke:none;stroke-width:18.6466;stroke-opacity:1"
           id="rect4"
           width="600.00043"
           height="506.34604"
           x="9.5125215e-06"
           y="36.066296"
           rx="100" />
      </g>
    </clipPath>
    <clipPath
       clipPathUnits="userSpaceOnUse"
       id="clipPath5">
      <g
         id="g6"
         transform="matrix(0.58359138,0,0,0.58359138,61.922576,56.952651)">
        <rect
           style="fill:#000000;fill-opacity:0.405856;stroke:none;stroke-width:18.6466;stroke-opacity:1"
           id="rect5"
           width="600.00043"
           height="506.34604"
           x="9.5125215e-06"
           y="36.066296"
           rx="100" />
      </g>
    </clipPath>
    <clipPath
       clipPathUnits="userSpaceOnUse"
       id="clipPath6">
      <g
         id="g7"
         transform="matrix(0.58359138,0,0,0.58359138,61.922576,56.952651)">
        <rect
           style="fill:#000000;fill-opacity:0.405856;stroke:none;stroke-width:18.6466;stroke-opacity:1"
           id="rect6"
           width="600.00043"
           height="506.34604"
           x="9.5125215e-06"
           y="36.066296"
           rx="100" />
      </g>
    </clipPath>
    <clipPath
       clipPathUnits="userSpaceOnUse"
       id="clipPath7">
      <g
         id="g8"
         transform="matrix(0.58359138,0,0,0.58359138,61.922576,56.952651)">
        <rect
           style="fill:#000000;fill-opacity:0.405856;stroke:none;stroke-width:18.6466;stroke-opacity:1"
           id="rect7"
           width="600.00043"
           height="506.34604"
           x="9.5125215e-06"
           y="36.066296"
           rx="100" />
      </g>
    </clipPath>
    <clipPath
       clipPathUnits="userSpaceOnUse"
       id="clipPath8">
      <g
         id="g9"
         transform="matrix(0.58359138,0,0,0.58359138,61.922576,56.952651)">
        <rect
           style="fill:#000000;fill-opacity:0.405856;stroke:none;stroke-width:18.6466;stroke-opacity:1"
           id="rect8"
           width="600.00043"
           height="506.34604"
           x="9.5125215e-06"
           y="36.066296"
           rx="100" />
      </g>
    </clipPath>
    <clipPath
       clipPathUnits="userSpaceOnUse"
       id="clipPath9">
      <g
         id="g10"
         transform="matrix(0.58359138,0,0,0.58359138,61.922576,56.952651)">
        <rect
           style="fill:#000000;fill-opacity:0.405856;stroke:none;stroke-width:18.6466;stroke-opacity:1"
           id="rect9"
           width="600.00043"
           height="506.34604"
           x="9.5125215e-06"
           y="36.066296"
           rx="100" />
      </g>
    </clipPath>
    <clipPath
       clipPathUnits="userSpaceOnUse"
       id="clipPath10">
      <g
         id="g11"
         transform="matrix(0.58359138,0,0,0.58359138,61.922576,56.952651)">
        <rect
           style="fill:#000000;fill-opacity:0.405856;stroke:none;stroke-width:18.6466;stroke-opacity:1"
           id="rect10"
           width="600.00043"
           height="506.34604"
           x="9.5125215e-06"
           y="36.066296"
           rx="100" />
      </g>
    </clipPath>
    <clipPath
       clipPathUnits="userSpaceOnUse"
       id="clipPath11">
      <g
         id="g12"
         transform="matrix(0.58359138,0,0,0.58359138,61.922576,56.952651)">
        <rect
           style="fill:#000000;fill-opacity:0.405856;stroke:none;stroke-width:18.6466;stroke-opacity:1"
           id="rect11"
           width="600.00043"
           height="506.34604"
           x="9.5125215e-06"
           y="36.066296"
           rx="100" />
      </g>
    </clipPath>
    <clipPath
       clipPathUnits="userSpaceOnUse"
       id="clipPath12">
      <g
         id="g13">
        <rect
           style="fill:#000000;fill-opacity:0.405856;stroke:none;stroke-width:18.6466;stroke-opacity:1"
           id="rect12"
           width="600.00043"
           height="506.34604"
           x="9.5125215e-06"
           y="36.066296"
           rx="100" />
      </g>
    </clipPath>
    <clipPath
       clipPathUnits="userSpaceOnUse"
       id="clipPath13">
      <g
         id="g14">
        <rect
           style="fill:#000000;fill-opacity:0.405856;stroke:none;stroke-width:18.6466;stroke-opacity:1"
           id="rect13"
           width="600.00043"
           height="506.34604"
           x="9.5125215e-06"
           y="36.066296"
           rx="100" />
      </g>
    </clipPath>
    <clipPath
       clipPathUnits="userSpaceOnUse"
       id="clipPath14">
      <g
         id="g15">
        <rect
           style="fill:#000000;fill-opacity:0.405856;stroke:none;stroke-width:18.6466;stroke-opacity:1"
           id="rect14"
           width="600.00043"
           height="506.34604"
           x="9.5125215e-06"
           y="36.066296"
           rx="100" />
      </g>
    </clipPath>
    <clipPath
       clipPathUnits="userSpaceOnUse"
       id="clipPath15">
      <g
         id="g16">
        <rect
           style="fill:#000000;fill-opacity:0.405856;stroke:none;stroke-width:18.6466;stroke-opacity:1"
           id="rect15"
           width="600.00043"
           height="506.34604"
           x="9.5125215e-06"
           y="36.066296"
           rx="100" />
      </g>
    </clipPath>
    <clipPath
       clipPathUnits="userSpaceOnUse"
       id="clipPath16">
      <g
         id="g17">
        <rect
           style="fill:#000000;fill-opacity:0.405856;stroke:none;stroke-width:18.6466;stroke-opacity:1"
           id="rect16"
           width="600.00043"
           height="506.34604"
           x="9.5125215e-06"
           y="36.066296"
           rx="100" />
      </g>
    </clipPath>
    <clipPath
       clipPathUnits="userSpaceOnUse"
       id="clipPath17">
      <g
         id="g18"
         transform="matrix(0.58359138,0,0,0.58359138,61.922576,56.952651)">
        <rect
           style="fill:#000000;fill-opacity:0.405856;stroke:none;stroke-width:18.6466;stroke-opacity:1"
           id="rect17"
           width="600.00043"
           height="506.34604"
           x="9.5125215e-06"
           y="36.066296"
           rx="100" />
      </g>
    </clipPath>
    <clipPath
       clipPathUnits="userSpaceOnUse"
       id="clipPath18">
      <g
         id="g19">
        <rect
           style="fill:#000000;fill-opacity:0.405856;stroke:none;stroke-width:18.6466;stroke-opacity:1"
           id="rect18"
           width="600.00043"
           height="506.34604"
           x="9.5125215e-06"
           y="36.066296"
           rx="100" />
      </g>
    </clipPath>
  </defs>
  <sodipodi:namedview
     id="namedview1"
     pagecolor="#ffffff"
     bordercolor="#000000"
     borderopacity="0.25"
     inkscape:showpageshadow="2"
     inkscape:pageopacity="0.0"
     inkscape:pagecheckerboard="0"
     inkscape:deskcolor="#d1d1d1"
     inkscape:zoom="0.70006817"
     inkscape:cx="159.98442"
     inkscape:cy="144.98588"
     inkscape:window-width="1920"
     inkscape:window-height="1003"
     inkscape:window-x="0"
     inkscape:window-y="0"
     inkscape:window-maximized="1"
     inkscape:current-layer="g1">
    <inkscape:page
       x="0"
       y="0"
       inkscape:label="1"
       id="page1"
       width="600.00043"
       height="506.34604"
       margin="0"
       bleed="0" />
  </sodipodi:namedview>
  <g
     id="g1"
     inkscape:groupmode="layer"
     inkscape:label="1"
     transform="translate(-9.5125215e-6,-36.066296)">
    <rect
       style="fill:#4063d8;fill-opacity:1;stroke:none;stroke-width:12.936;stroke-opacity:1"
       id="rect119"
       width="599.99994"
       height="506.34634"
       x="1.8073166e-05"
       y="36.066296"
       clip-path="url(#clipPath18)" />
    <path
       id="path119"
       d="m 237,148.922 6.715,0.262 6.683,0.722 6.618,1.172 6.527,1.602 6.414,2.008 6.285,2.382 6.141,2.735 5.984,3.066 5.828,3.348 5.676,3.601 5.527,3.828 5.375,4.036 5.227,4.23 5.086,4.395 4.953,4.543 4.832,4.675 4.711,4.789 4.606,4.899 4.5,4.992 4.374,5.105 4.282,5.18 4.203,5.25 4.117,5.313 4.008,5.394 3.941,5.446 3.883,5.488 3.781,5.558 -0.88606,2.42852 -0.74594,2.04448 -5.668,3.617 -5.735,3.504 -5.804,3.391 -5.876,3.269 -5.941,3.145 -6.012,3.012 -6.074,2.875 -6.144,2.73 -6.207,2.582 -6.278,2.41 -6.336,2.25 -6.39,2.078 -6.45,1.903 -6.496,1.726 -6.543,1.539 -6.586,1.352 -6.625,1.144 -6.66,0.934 -6.679,0.734 -6.703,0.528 -6.715,0.324 -6.723,0.117 -6.723,-0.117 -6.715,-0.324 -6.703,-0.528 -6.679,-0.734 -6.66,-0.934 -6.625,-1.144 -6.586,-1.352 -6.543,-1.539 -6.496,-1.726 -6.45,-1.903 -6.39,-2.078 -6.336,-2.25 -6.278,-2.41 -6.207,-2.582 -6.144,-2.73 -6.074,-2.875 -6.012,-3.012 -5.941,-3.145 -5.876,-3.269 -5.804,-3.391 -5.735,-3.504 -5.668,-3.617 -1.632,-4.473 3.781,-5.558 3.883,-5.488 3.941,-5.446 4.008,-5.394 4.117,-5.313 4.203,-5.25 4.282,-5.18 4.374,-5.105 4.5,-4.992 4.606,-4.899 4.711,-4.789 4.832,-4.675 4.953,-4.543 5.086,-4.395 5.227,-4.23 5.375,-4.036 5.527,-3.828 5.676,-3.601 5.828,-3.348 5.984,-3.066 6.141,-2.735 6.285,-2.382 6.414,-2.008 6.527,-1.602 6.618,-1.172 6.683,-0.722 6.715,-0.262"
       style="fill:#ffffff;fill-opacity:1;stroke:#000000;stroke-width:1.125;stroke-linecap:butt;stroke-linejoin:miter;stroke-miterlimit:2;stroke-dasharray:none;stroke-opacity:1"
       transform="matrix(1.7135277,0,0,1.7135277,-106.10605,-97.589945)"
       clip-path="url(#clipPath17)"
       sodipodi:nodetypes="cccccccccccccccccccccccccccccccccccccccccccccccccccccccccccccccccccccccccccccccccccccccccccccccccccccc" />
    <path
       id="path44"
       style="fill:#9558b2;fill-opacity:1;fill-rule:evenodd;stroke:none;stroke-width:1.71353"
       d="m 29.683803,36.066295 -0.132644,0.09948 -4.083534,3.299514 -0.542418,0.409775 -3.626387,2.984485 -0.992459,0.776913 -3.138447,2.622083 -1.487505,1.186689 -2.603135,2.214677 -2.020448,1.646205 L 9.0340076,53.058911 6.4379792,55.228585 5.0310079,56.453171 1.8120273,59.20553 1.0777488,59.854537 1.7921573e-5,60.794886 V 74.682214 L 1.3382994,73.448151 l 0.4737279,-0.414503 3.2189806,-2.984489 1.4069713,-1.234063 2.3828512,-2.167305 2.2359956,-1.961236 1.605936,-1.433026 3.017647,-2.629179 0.878765,-0.769813 3.747187,-3.240298 0.182384,-0.161068 3.853777,-3.39189 0.582685,-0.502152 3.313725,-2.899215 1.312227,-1.110892 2.657613,-2.290474 1.965971,-1.65331 2.055978,-1.745686 2.562867,-2.134145 1.513561,-1.260115 3.112392,-2.581816 0.997197,-0.817181 z"
       clip-path="url(#clipPath16)" />
    <path
       id="path50"
       clip-path="url(#clipPath14)"
       style="fill:#b34b31;fill-opacity:1;fill-rule:evenodd;stroke:none;stroke-width:1.71353"
       d="m 338.66093,36.063926 -8.61475,0.0024 H 208.92346 l -3.69745,1.764636 -3.25214,1.634361 -1.37144,0.670324 -4.61885,2.354428 -0.70348,0.369508 -3.9201,2.03466 -2.52497,1.364336 -2.10335,1.113261 -4.12853,2.288105 -0.48795,0.267657 -4.62595,2.591291 -0.92377,0.540049 -3.69981,2.115195 -2.15073,1.279065 -2.4776,1.44487 -3.20477,1.956496 -1.41171,0.843232 -4.10958,2.55576 -0.51636,0.315034 -4.62359,2.92527 -0.2416,0.153958 -4.37962,2.816317 -0.87402,0.582687 -3.74956,2.465749 -1.37855,0.935607 -3.2474,2.174412 -1.76464,1.21985 -2.85183,1.958872 -2.04887,1.440132 -2.57946,1.807266 -2.21942,1.594091 -2.40416,1.714903 -2.30232,1.684101 -2.31652,1.686465 -2.29522,1.707797 -2.32837,1.733834 -2.20284,1.667522 -2.42311,1.833328 -2.02756,1.565676 -2.59129,1.994393 -1.78832,1.399866 -2.83763,2.22889 -1.47092,1.1701 -3.152662,2.52497 -1.084835,0.8764 -3.534018,2.8779 -0.637164,0.52347 -3.988785,3.29951 -0.113694,0.0924 -4.069324,3.40137 -0.440565,0.36713 -3.57427,3.03186 -1.051678,0.89061 -2.911057,2.50365 -1.707797,1.4875 -2.202827,1.91387 -2.423121,2.13413 -1.433026,1.26486 -3.190558,2.85896 -0.604007,0.5353 -3.754289,3.39901 -0.260546,0.24159 -3.481907,3.15976 -1.144048,1.05879 -2.543918,2.34258 -2.082034,1.94702 -1.551459,1.44488 -3.065018,2.91816 -0.509257,0.48319 -3.560065,3.39901 -0.55663,0.53768 -2.984486,2.85658 -1.641467,1.62014 -1.840432,1.78122 -2.778413,2.77605 -0.634796,0.62295 -3.391891,3.39426 -0.596897,0.60874 -2.792626,2.79025 -1.833326,1.90202 -1.4804,1.49698 -3.138446,3.30188 -0.09948,0.10186 -3.273458,3.39189 -1.25301,1.35248 -1.944653,2.04889 -2.67893,2.92527 -0.442937,0.47372 -3.1313401,3.39426 -1.0445697,1.18432 -2.0346617,2.21705 -2.5912902,2.96317 -0.3931944,0.43582 -1.418814978427,1.6083 V 217.6059 L 1.0777488,216.17287 l 0.7342785,-0.91666 1.9754446,-2.47523 2.6505073,-3.3161 0.066321,-0.0853 2.8044686,-3.40137 1.7480572,-2.0465 1.144052,-1.34538 2.911058,-3.40137 0.568473,-0.6419 2.416011,-2.75709 2.209941,-2.44444 0.850342,-0.95693 3.091073,-3.39426 0.677431,-0.72243 2.470491,-2.67656 2.155461,-2.26443 1.070625,-1.13694 3.266352,-3.39189 0.286607,-0.29609 3.005802,-3.10528 1.613043,-1.62015 1.755162,-1.78122 2.870791,-2.83762 0.568474,-0.56137 3.460581,-3.39426 0.596897,-0.57558 2.903951,-2.82342 1.712526,-1.62725 1.861751,-1.77174 2.764201,-2.58419 0.869289,-0.81244 3.683235,-3.39901 0.07343,-0.0663 3.633488,-3.33504 0.985354,-0.88115 2.804469,-2.51075 1.819115,-1.62726 2.022819,-1.77411 2.603129,-2.27626 1.30513,-1.12273 3.313724,-2.85894 0.648999,-0.54243 3.974584,-3.36583 0.03316,-0.0284 4.083537,-3.39899 0.509255,-0.42162 3.654808,-2.97975 0.971141,-0.78876 3.266354,-2.6055 1.352499,-1.08957 2.963169,-2.30942 1.66041,-1.31223 2.74525,-2.08914 1.8807,-1.45671 2.5984,-1.93518 2.02045,-1.54199 2.55102,-1.85938 2.07493,-1.54672 2.59602,-1.85228 2.02757,-1.4804 2.73814,-1.92096 1.8807,-1.338284 2.99159,-2.055976 1.63199,-1.144053 3.34215,-2.254951 1.28618,-0.876389 3.8064,-2.524967 0.81007,-0.542424 4.39856,-2.849474 0.22739,-0.156322 4.62358,-2.863687 0.61822,-0.381359 4.003,-2.404167 1.6462,-0.99719 2.97739,-1.752802 2.7642,-1.646202 1.86174,-1.077728 3.96274,-2.316534 0.65374,-0.37424 4.62833,-2.484705 0.95456,-0.540047 3.66902,-1.847541 2.80447,-1.553827 1.82148,-0.916664 4.59043,-2.477598 0.026,-0.01184 4.62596,-1.975449 2.68366,-1.411706 1.94228,-0.857447 4.61885,-2.162567 0.72244,-0.381352 3.90114,-1.404603 3.99589,-1.987287 0.63007,-0.248708 4.61884,-1.352493 3.62165,-1.800166 1.0043,-0.32924 4.62358,-0.762703 1.69595,1.091943 -1.69595,0.649007 -4.09537,2.74999 -0.52821,0.222652 -4.62595,2.096246 -1.2909,1.075362 -3.32794,1.487506 -2.88501,1.91386 -1.74095,0.829019 -4.17591,2.569973 -0.44767,0.220282 -4.61885,2.458655 -1.01141,0.715325 -3.61217,1.899653 -2.2431,1.499351 -2.38522,1.307482 -3.22372,2.093874 -1.39276,0.788756 -4.05037,2.605506 -0.57558,0.341084 -4.62358,2.944225 -0.16107,0.113695 -4.46726,2.766571 -0.88113,0.634786 -3.73535,2.382858 -1.42591,1.016146 -3.20003,2.096238 -1.82148,1.298024 -2.80211,1.880698 -2.09625,1.520658 -2.52497,1.733847 -2.27389,1.665157 -2.34969,1.646202 -2.3639,1.748061 -2.26205,1.62725 -2.36154,1.77174 -2.25493,1.65331 -2.28337,1.74806 -2.34496,1.74805 -2.11992,1.65332 -2.50366,1.89964 -1.89254,1.49225 -2.7263,2.1223 -1.59884,1.27907 -3.02475,2.38758 -1.2388,1.01141 -3.38715,2.7263 -0.81007,0.66796 -3.80878,3.12661 -0.32687,0.27476 -4.08354,3.39899 -0.21554,0.17528 -3.822986,3.21898 -0.800593,0.66796 -3.188192,2.73105 -1.430661,1.21985 -2.510755,2.1815 -2.115194,1.82622 -1.781216,1.57515 -2.842367,2.48943 -1.011404,0.90247 -3.614544,3.22608 -0.194233,0.17527 -3.742453,3.39901 -0.682168,0.61584 -3.010538,2.77842 -1.61541,1.47329 -2.053611,1.92807 -2.569973,2.38286 -1.06588,1.01614 -3.552962,3.35399 -0.04738,0.0403 -3.507945,3.39899 -1.070629,1.03273 -2.416011,2.36627 -2.209941,2.15783 -1.250641,1.24354 -3.365836,3.34689 -0.05448,0.0474 -3.339782,3.40137 -1.231691,1.25064 -2.08914,2.14835 -2.536813,2.61261 -0.762701,0.78165 -3.218981,3.40137 -0.637163,0.67506 -2.562868,2.72393 -2.060716,2.22178 -1.110892,1.17959 -3.093442,3.39188 -0.421618,0.46189 -2.678931,2.93948 -1.939915,2.19573 -1.125104,1.20328 -2.956062,3.39425 -0.544786,0.63006 -2.482334,2.77131 -2.141249,2.53445 -0.810075,0.86455 -2.8707917,3.39425 -0.9379804,1.15116 -2.0346617,2.24784 -2.5912902,3.25214 -0.1515929,0.14923 -1.660416478427,1.91622 v 19.26889 L 0.54006823,253.55711 l 1.27195907,-1.8286 1.0990485,-1.57277 2.4160112,-3.39426 1.1108922,-1.53251 1.3667046,-1.86649 2.5154952,-3.40136 0.736647,-0.97589 1.854644,-2.41601 2.603134,-3.40136 0.165805,-0.21555 2.546287,-3.18582 2.079665,-2.60787 0.637163,-0.79113 2.797363,-3.39425 1.18432,-1.43303 1.665153,-1.96597 2.866054,-3.40137 0.09474,-0.10659 2.889739,-3.28766 1.733845,-1.9873 1.264852,-1.41171 3.034227,-3.40137 0.319766,-0.35528 2.818681,-3.0366 1.807272,-1.97071 1.359598,-1.43066 3.18582,-3.40137 0.08053,-0.0876 3.226086,-3.31136 1.390391,-1.44013 1.942285,-1.95413 2.683667,-2.72393 0.682163,-0.67506 3.434537,-3.40137 0.509255,-0.50215 3.005797,-2.89211 1.613045,-1.56567 1.939916,-1.8357 2.683668,-2.55576 0.904827,-0.84324 3.635853,-3.39899 0.08527,-0.0734 3.661926,-3.32083 0.956928,-0.88351 2.823411,-2.51786 1.802537,-1.61777 2.032291,-1.78122 2.591292,-2.28811 1.286175,-1.10615 3.339774,-2.89685 0.594535,-0.50216 3.99115,-3.40135 0.03317,-0.0332 4.055107,-3.36109 0.57084,-0.48084 3.57428,-2.92053 1.0493,-0.85981 3.15977,-2.53918 1.45908,-1.17723 2.81867,-2.22178 1.80728,-1.42592 2.54155,-1.96834 2.08204,-1.62014 2.34258,-1.77885 2.27626,-1.73621 2.22889,-1.66516 2.39707,-1.78595 2.20282,-1.60831 2.42313,-1.77411 2.26204,-1.62488 2.35443,-1.69595 2.43733,-1.70542 2.18862,-1.53251 2.70973,-1.85938 1.91385,-1.32171 3.09345,-2.07966 1.52777,-1.02325 3.61455,-2.37812 1.00904,-0.66321 4.24934,-2.73578 0.3766,-0.23449 4.61648,-2.892117 0.44294,-0.267653 4.18539,-2.543923 1.43302,-0.855081 3.19056,-1.897276 2.59129,-1.50408 2.03466,-1.170116 3.92958,-2.224146 0.6869,-0.393196 4.62832,-2.532074 0.88824,-0.473734 3.73534,-1.982544 2.7192,-1.418813 1.89965,-0.982989 4.62358,-2.32837 0.16817,-0.08765 4.46015,-2.162563 2.59603,-1.231699 2.02046,-0.956927 4.62594,-2.122301 0.71534,-0.322128 3.90824,-1.726741 3.87036,-1.672263 0.75086,-0.322129 4.62358,-1.913867 2.87792,-1.158266 1.74804,-0.703476 4.61648,-1.793065 2.41838,-0.902451 2.20758,-0.831393 4.62595,-1.665153 2.58418,-0.90482 2.03466,-0.710591 4.62358,-1.544353 3.52217,-1.139316 1.10379,-0.360033 4.62595,-1.425921 4.61884,-1.385653 0.80297,-0.22739 3.82062,-1.091943 4.62596,-1.264852 3.93431,-1.044571 0.68453,-0.180016 4.62358,-1.151159 4.62595,-1.113259 4.11669,-0.954562 0.50216,-0.116064 4.62595,-1.004303 4.62359,-0.961667 4.61883,-0.916663 2.10809,-0.395563 2.51788,-0.476096 4.62595,-0.817181 4.61646,-0.776913 4.62595,-0.734279 z m -110.32173,10.161462 0.47608,0.03316 -0.47608,0.12317 -0.13265,-0.12317 z m -4.61886,2.342583 -4.62358,0.762703 -1.0043,0.32924 -3.62165,1.800166 -4.61884,1.352493 -0.63007,0.246338 -3.99589,1.989657 -3.90114,1.404603 -0.72244,0.381352 -4.61885,2.162567 -1.94228,0.857447 -2.6813,1.411706 -4.62832,1.973084 -0.026,0.0142 -4.59043,2.475233 -1.82148,0.919029 -2.80447,1.553827 -3.66902,1.845177 -0.95456,0.542411 -4.62833,2.484705 -0.65374,0.37424 -3.96274,2.316534 -1.86174,1.077728 -2.7642,1.646202 -2.97739,1.752802 -1.6462,0.99719 -4.003,2.404167 -0.61822,0.381359 -4.62358,2.863687 -0.22739,0.153958 -4.39856,2.851838 -0.81007,0.542424 -3.8064,2.52259 -1.28618,0.878766 -3.34215,2.254951 -1.63199,1.144053 -2.99159,2.053611 -1.8807,1.340651 -2.73814,1.92096 -2.02757,1.47803 -2.59602,1.85465 -2.07493,1.54672 -2.55102,1.85938 -2.02045,1.54199 -2.5984,1.93281 -1.8807,1.45908 -2.74525,2.08914 -1.66041,1.31223 -2.963172,2.30705 -1.352499,1.09194 -3.266354,2.6055 -0.971141,0.78876 -3.654808,2.97975 -0.509255,0.42162 -4.083537,3.39899 -0.03079,0.0284 -3.976949,3.36583 -0.648999,0.54243 -3.313724,2.85658 -1.30513,1.12509 -2.603129,2.27626 -2.022819,1.77411 -1.819115,1.62726 -2.804469,2.50839 -0.985354,0.88351 -3.633488,3.33504 -0.07343,0.0663 -3.683235,3.39901 -0.869289,0.81007 -2.764201,2.58419 -1.861751,1.77411 -1.712526,1.62725 -2.903951,2.82342 -0.596897,0.57558 -3.460581,3.39426 -0.568474,0.56137 -2.870791,2.83762 -1.755162,1.78122 -1.613043,1.61778 -3.005802,3.10765 -0.286607,0.29372 -3.266352,3.39426 -1.070625,1.13694 -2.155461,2.26443 -2.470491,2.67656 -0.675062,0.72243 -3.093442,3.39426 -0.850342,0.95693 -2.209941,2.44444 -2.416011,2.75472 -0.568473,0.64427 -2.911058,3.40137 -1.144052,1.34538 -1.7480569,2.0465 -2.8044686,3.40137 -0.066321,0.0853 -2.6505073,3.31374 -1.9754446,2.47759 -0.7342785,0.91666 -1.077730878427,1.43303 v 17.47582 L 1.6604344,233.16548 l 0.1515929,-0.14685 2.5912902,-3.25214 2.0346617,-2.25021 0.9379804,-1.14879 2.8707914,-3.39425 0.810075,-0.86455 2.141249,-2.53445 2.482334,-2.77131 0.544786,-0.63006 2.956062,-3.39425 1.125104,-1.20328 1.942283,-2.19573 2.676563,-2.93948 0.421618,-0.46189 3.093442,-3.39188 1.110892,-1.17959 2.060716,-2.22178 2.562868,-2.7263 0.637163,-0.67507 3.218981,-3.39899 0.762701,-0.78401 2.536813,-2.61025 2.08914,-2.14835 1.231691,-1.25064 3.339782,-3.40137 0.05448,-0.0474 3.365836,-3.34689 1.250641,-1.2459 2.209941,-2.15547 2.416011,-2.36627 1.070629,-1.03273 3.507945,-3.39899 0.04738,-0.0426 3.552962,-3.35162 1.06588,-1.01614 2.569973,-2.38523 2.053611,-1.9257 1.61541,-1.47329 3.010538,-2.77842 0.682168,-0.61584 3.742453,-3.39901 0.194233,-0.17527 3.614544,-3.22608 1.011404,-0.90483 2.842367,-2.48943 1.781216,-1.57279 2.117571,-1.82858 2.508378,-2.18152 1.430661,-1.21747 3.188192,-2.73105 0.80297,-0.66796 3.822982,-3.21898 0.21317,-0.17528 4.08354,-3.40136 0.32687,-0.27239 3.80878,-3.12898 0.81007,-0.66795 3.38715,-2.72394 1.2388,-1.01141 3.02475,-2.38758 1.59884,-1.27907 2.7263,-2.1223 1.89254,-1.49225 2.50366,-1.90202 2.1223,-1.6533 2.34258,-1.74805 2.28337,-1.7457 2.25493,-1.65331 2.36154,-1.77411 2.26205,-1.62488 2.3639,-1.748058 2.34969,-1.646202 2.27389,-1.665157 2.52497,-1.733847 2.09625,-1.520658 2.80211,-1.880698 1.82148,-1.298024 3.20003,-2.096238 1.42591,-1.018511 3.73535,-2.380493 0.88113,-0.637163 4.46726,-2.764194 0.16107,-0.113695 4.62358,-2.944225 0.57558,-0.341084 4.05037,-2.605506 1.39276,-0.788756 3.22372,-2.093874 2.38522,-1.307482 2.2431,-1.499351 3.61217,-1.899653 1.01141,-0.715325 4.61885,-2.458655 0.44767,-0.220282 4.17591,-2.569973 1.74095,-0.829019 2.88737,-1.91386 3.32558,-1.487506 1.2909,-1.07773 4.62595,-2.093878 0.52821,-0.222652 4.09537,-2.752358 1.69595,-0.646639 z" />
    <path
       id="path51"
       style="fill:#b34b31;fill-opacity:1;fill-rule:evenodd;stroke:none;stroke-width:1.71353"
       d="m 44.416738,36.066295 -0.997197,0.817181 -3.112392,2.581816 -1.513561,1.260115 -2.562867,2.134145 -2.055978,1.745686 -1.965971,1.65331 -2.657613,2.290474 -1.312227,1.110892 -3.313725,2.896846 -0.582685,0.502151 -3.853777,3.39426 -0.182384,0.161068 -3.747187,3.240298 -0.878765,0.769813 -3.017647,2.629179 -1.605936,1.433026 L 8.8208304,66.647791 6.4379792,68.815096 5.0310079,70.046795 1.8120273,73.033648 1.3382994,73.448151 1.7921573e-5,74.682214 V 89.81782 L 1.8120273,88.126613 l 1.1914256,-1.084835 3.4345263,-3.159766 0.267656,-0.239238 3.7827168,-3.401357 0.568474,-0.516362 3.266352,-2.882642 1.357231,-1.205636 2.517862,-2.188626 2.10809,-1.847529 1.807271,-1.553827 2.811575,-2.420757 1.151158,-0.978247 3.474794,-2.944213 0.532944,-0.450049 4.064584,-3.398992 0.02606,-0.02132 4.111957,-3.380046 0.506888,-0.414511 3.680866,-2.979749 0.945087,-0.767438 3.299514,-2.631559 1.326438,-1.065887 2.963167,-2.335479 1.65331,-1.30275 2.697881,-2.096246 1.928071,-1.499349 2.477593,-1.894911 2.148362,-1.65331 2.30705,-1.745687 z"
       clip-path="url(#clipPath13)" />
    <path
       id="path52"
       style="fill:#b34b31;fill-opacity:1;fill-rule:evenodd;stroke:none;stroke-width:1.71353"
       d="M 10.969186,36.066295 6.9661858,39.465292 6.4379792,39.920071 3.0105583,42.859552 1.8120273,43.901753 1.7921573e-5,45.476898 V 60.794886 L 1.0777488,59.854537 l 0.7342785,-0.651375 3.2189806,-2.749991 1.4069713,-1.224586 2.5960284,-2.169674 2.0228184,-1.752792 2.020448,-1.646205 2.603135,-2.214677 1.487505,-1.186689 3.138447,-2.624451 0.992459,-0.774545 3.626387,-2.984485 0.542418,-0.409775 4.083534,-3.299514 0.132644,-0.09948 z"
       clip-path="url(#clipPath12)" />
    <path
       id="path53"
       clip-path="url(#clipPath11)"
       style="fill:#b34b31;fill-opacity:1;fill-rule:evenodd;stroke:none"
       d="m 249.14088,136.44086 -2.69966,0.004 -2.69552,0.0594 -2.69828,0.11197 -2.69967,0.17279 -2.69552,0.2267 -2.69966,0.29305 -1.39753,0.18661 -1.30076,0.16035 -2.69552,0.39119 -2.69966,0.46032 -2.69967,0.52804 -1.98362,0.44511 -0.71051,0.14791 -2.69967,0.62619 -2.69967,0.71051 -1.70301,0.5004 -0.99527,0.26817 -2.69552,0.82109 -2.62917,0.89021 -0.0705,0.0235 -2.69967,0.93721 -2.63608,1.0243 -0.0594,0.0194 -2.69828,1.06992 -2.04307,0.89436 -0.6566,0.2737 -2.69552,1.22196 -0.99941,0.4852 -1.69887,0.80451 -2.30156,1.1805 -0.39811,0.19905 -2.69552,1.42932 -0.63171,0.35525 -2.06795,1.14456 -1.42517,0.8363 -1.27311,0.74231 -2.02372,1.24132 -0.6718,0.41055 -2.45638,1.57446 -0.24191,0.15205 -2.70104,1.79701 -0.0456,0.0346 -2.64852,1.82466 -0.22394,0.1562 -2.47573,1.77766 -0.28061,0.20735 -2.41767,1.79701 -0.24329,0.18661 -2.45776,1.89101 -0.11197,0.0899 -2.49231,1.985 -0.0899,0.0733 -2.34026,1.91036 -0.3594,0.2972 -2.00298,1.68781 -0.6953,0.59301 -1.60626,1.38646 -1.09065,0.96072 -1.15561,1.02429 -1.54267,1.39476 -0.64831,0.58887 -2.05136,1.90207 -0.0857,0.0788 -2.12462,1.98501 -0.48381,0.46445 -1.60211,1.51917 -1.09894,1.07406 -0.93583,0.9068 -1.76245,1.75278 -0.23362,0.23085 -1.985,1.98501 -0.4769,0.48795 -1.48738,1.49705 -1.21091,1.25791 -0.70774,0.72157 -1.88272,1.98501 -0.1092,0.11335 -1.79287,1.87027 -0.90265,0.98007 -0.94965,1.0008 -1.75002,1.92556 -0.0539,0.0594 -1.8371,1.98363 -0.80727,0.90542 -0.98559,1.07959 -1.70993,1.95321 -0.0276,0.0263 -1.77628,1.985 -0.89574,1.04227 -0.83631,0.94274 -1.69057,1.97948 -0.17141,0.20735 -1.54405,1.77766 -1.15561,1.39752 -0.5004,0.5861 -1.64911,1.98086 -0.54601,0.68701 -1.0865,1.298 -1.56202,1.98363 -0.0512,0.0622 -1.54681,1.9228 -1.15147,1.52332 -0.3594,0.45616 -1.51226,1.98501 -0.823861,1.157 -0.62066,0.82801 -1.407199,1.97948 -0.671807,1.016 -0.675953,0.969 -1.281408,1.98363 -0.742304,1.27035 -0.44096,0.71051 -1.112765,1.98501 -0.934447,1.98362 -0.205965,0.5239 -0.649689,1.46111 -0.702217,1.97948 -0.532193,1.98362 -0.382901,1.98501 -0.246053,1.98086 -0.128555,1.98501 -0.0235,1.98363 0.08294,1.98362 0.175555,1.98086 0.265404,1.98501 0.351109,1.98501 0.427136,1.97948 0.492105,1.98362 0.554309,1.98501 0.316551,1.05194 0.288904,0.92892 0.651072,1.98501 0.696688,1.98362 0.73401,1.98363 0.323463,0.86809 0.446488,1.11277 0.800362,1.98501 0.828008,1.98501 0.624807,1.46802 0.2267,0.51145 0.883301,1.98501 0.901271,1.98363 0.688394,1.48461 0.237759,0.50039 0.945505,1.98087 0.964856,1.98362 0.5474,1.12935 0.43405,0.85428 0.99941,1.98086 1.01048,1.98501 0.25434,0.50731 0.7741,1.47769 1.0478,1.97948 0.87777,1.66431 0.17555,0.3207 1.0713,1.98362 1.08235,1.98501 0.36632,0.67872 0.72986,1.30214 1.10585,1.98363 0.86395,1.54681 0.25297,0.4382 1.12935,1.97947 1.13626,1.98501 0.17971,0.31241 0.97729,1.6726 1.15977,1.97948 0.5626,0.96486 0.6096,1.02015 1.18327,1.98362 0.90265,1.5164 0.28476,0.46723 2.41352,3.96172 v 0.004 l 1.22612,1.985 1.23164,1.97948 0.24191,0.3912 1.00356,1.59243 1.251,1.985 0.44096,0.7036 0.82386,1.28141 1.26897,1.98086 0.60683,0.94413 0.67458,1.0395 1.29384,1.98362 0.72987,1.12521 0.56675,0.85566 1.30905,1.985 0.81972,1.25376 0.4921,0.73125 1.3215,1.97948 0.88468,1.3367 0.43819,0.64692 1.33671,1.98501 0.92615,1.37955 0.40916,0.60546 1.34085,1.98086 0.94412,1.40582 0.39811,0.57781 h 69.49324 l -2.44117,-1.97257 -0.0124,-0.0111 -2.43703,-1.98086 -0.24605,-0.19905 -2.17991,-1.78596 -0.51975,-0.41746 -1.88687,-1.56755 -0.8128,-0.65936 -1.56617,-1.32426 -1.12935,-0.93445 -1.22473,-1.04503 -1.47355,-1.2427 -0.85151,-0.74231 -1.84816,-1.58275 -0.44925,-0.40225 -2.24627,-1.96013 -0.0235,-0.0207 -2.22967,-1.98362 -0.44511,-0.38705 -1.76522,-1.59658 -0.93445,-0.82524 -1.2662,-1.15562 -1.42932,-1.28555 -0.75751,-0.69946 -1.94215,-1.76107 -0.23776,-0.22393 -2.16747,-1.98363 -0.29305,-0.25711 -1.86752,-1.72237 -0.828,-0.74783 -1.33947,-1.23717 -1.35882,-1.23027 -0.81418,-0.75336 -1.88686,-1.70716 -0.29306,-0.27508 -2.18268,-1.98363 -0.2184,-0.19491 -1.96566,-1.78871 -0.73401,-0.65384 -1.45696,-1.33117 -1.24132,-1.10171 -0.96209,-0.87777 -1.73896,-1.55234 -0.47137,-0.43267 -2.21447,-1.98501 -0.008,-0.004 -2.19926,-1.97533 -0.5004,-0.44235 -1.70716,-1.54266 -0.99112,-0.87086 -1.21921,-1.11277 -1.4777,-1.30905 -0.72986,-0.67181 -1.96842,-1.76107 -0.2419,-0.22394 -2.19098,-1.98362 -0.26679,-0.23085 -1.90898,-1.75416 -0.78515,-0.6953 -1.38785,-1.28418 -1.3132,-1.18464 -0.84598,-0.80036 -1.8523,-1.69611 -0.2972,-0.2889 -2.12877,-1.98086 -0.26955,-0.24606 -1.82743,-1.73757 -0.87086,-0.80174 -1.21505,-1.18188 -1.48461,-1.39476 -0.59025,-0.58611 -2.05412,-1.985 -0.0512,-0.0511 -1.95736,-1.93248 -0.74231,-0.70774 -1.25376,-1.27727 -1.44452,-1.41825 -0.53496,-0.56122 -1.95736,-1.98501 -0.2032,-0.19906 -1.71131,-1.78595 -0.98835,-0.99527 -0.90957,-0.98559 -1.78872,-1.87028 -0.0981,-0.11335 -1.8371,-1.98362 -0.76442,-0.79345 -1.04642,-1.19156 -1.6491,-1.78872 -0.1645,-0.19214 -1.75001,-1.98501 -0.78516,-0.83492 -0.94827,-1.1487 -1.7431,-1.97948 -0.007,-0.008 -1.578607,-1.97671 -1.116913,-1.37541 -0.395343,-0.6096 -1.237174,-1.98086 -0.981445,-1.98362 -0.0857,-0.19491 -0.695305,-1.78872 -0.562603,-1.98501 -0.13685,-1.98086 0.273699,-1.98501 0.438195,-1.98362 0.682864,-1.75001 0.07879,-0.22947 1.061619,-1.98501 1.199852,-1.98362 0.359402,-0.57919 0.808656,-1.40582 1.351903,-1.98086 0.53496,-0.77272 0.76995,-1.21091 1.36711,-1.985 0.56122,-0.75475 0.89989,-1.22473 1.45282,-1.98501 0.34696,-0.44925 1.11,-1.53576 1.58552,-1.96012 0.0194,-0.0194 1.46111,-1.985 1.2192,-1.47217 0.42576,-0.51146 1.62422,-1.98501 0.64831,-0.77409 0.9303,-1.20677 1.75416,-1.98362 0.0152,-0.0166 1.60487,-1.96842 1.09065,-1.24547 0.64001,-0.73401 1.78872,-1.98501 0.26955,-0.29996 1.37956,-1.68504 1.32011,-1.41688 0.55431,-0.5626 1.80116,-1.98501 0.34005,-0.3677 1.43761,-1.61593 1.26205,-1.29385 0.66766,-0.69115 1.84263,-1.98087 0.188,-0.19075 1.77766,-1.79287 0.91786,-0.91786 0.96485,-1.06715 1.73343,-1.73342 0.27508,-0.24606 2.07762,-1.985 0.34835,-0.33591 1.55787,-1.6491 1.13626,-1.063 1.06715,-0.92063 1.63252,-1.53161 0.4064,-0.44925 2.21447,-1.98362 0.0774,-0.0719 2.14121,-1.91313 0.5557,-0.49211 1.66016,-1.48875 1.03812,-0.87777 1.3367,-1.10586 1.36296,-1.16114 0.95242,-0.82387 1.74172,-1.38231 0.7976,-0.59716 1.90345,-1.52885 0.55707,-0.45616 2.14121,-1.59796 0.56261,-0.38567 2.13706,-1.59104 0.50731,-0.39396 2.18683,-1.53161 0.7188,-0.44926 1.98224,-1.36296 0.88607,-0.62066 1.81222,-1.18465 1.3754,-0.80036 1.32012,-0.82801 1.84815,-1.15285 0.85013,-0.5156 2.69966,-1.45282 0.0235,-0.0152 2.67202,-1.53991 0.98007,-0.4451 1.7196,-0.86257 2.22691,-1.12106 0.47137,-0.23499 2.69552,-1.21091 1.2897,-0.53496 1.40997,-0.62481 2.69828,-1.1017 0.7976,-0.25711 1.89792,-0.70775 2.69967,-0.98836 1.02706,-0.2889 1.6726,-0.52805 2.69552,-0.82386 2.44808,-0.62895 0.2502,-0.0691 2.69967,-0.64554 2.69967,-0.6331 2.69413,-0.4534 1.1418,-0.18247 1.55787,-0.27784 2.69966,-0.40226 2.69552,-0.28061 2.69829,-0.28199 2.69966,-0.141 2.69552,-0.094 2.69967,-0.0429 2.69828,0.0747 2.69552,0.094 2.69966,0.17555 2.69967,0.2502 2.69414,0.28476 2.69966,0.37875 1.64911,0.26264 1.05056,0.16035 2.69966,0.46446 2.69414,0.55016 2.69967,0.60546 0.8128,0.2032 1.88686,0.46169 2.69552,0.71881 2.69829,0.79621 0.0207,0.004 2.67893,0.83215 2.69552,0.91095 0.68701,0.24191 2.01127,0.72295 2.69967,1.03397 0.56951,0.2267 2.12601,0.85566 2.62087,1.1252 0.0788,0.0346 2.69829,1.204 1.60487,0.74507 1.09065,0.5239 2.69828,1.3284 0.26679,0.13271 2.43426,1.24685 1.40996,0.73677 1.28417,0.69531 2.34856,1.28555 0.35111,0.2032 2.69828,1.53161 0.4382,0.2502 2.26285,1.33117 1.10033,0.65245 1.59381,0.9773 1.65187,1.00357 1.04779,0.66489 2.09421,1.32011 0.60408,0.39396 2.45085,1.58967 0.24605,0.16311 2.69828,1.79701 0.0318,0.0249 2.66787,1.81221 0.2502,0.16726 2.44393,1.70717 0.40364,0.27784 2.29741,1.64358 0.47967,0.34005 2.21862,1.6256 0.49625,0.35526 2.19927,1.65325 0.45201,0.33176 2.24627,1.72236 0.3442,0.26126 2.35546,1.84401 0.17971,0.13685 2.4854,1.98363 0.0304,0.0276 2.40938,1.95737 0.29029,0.2419 2.11218,1.7431 0.5861,0.49902 1.77352,1.48046 0.922,0.7976 1.4072,1.18741 1.29247,1.12521 1.01185,0.85841 1.68643,1.4777 0.5944,0.50317 2.10527,1.84401 0.16449,0.14099 2.27391,1.98363 0.25712,0.23085 2.02371,1.75416 0.67595,0.59716 1.60902,1.38232 1.08926,0.95379 1.20815,1.03121 1.48737,1.29247 0.8211,0.69254 1.87857,1.60487 0.44925,0.37461 2.25042,1.8993 0.1009,0.0857 2.37897,1.98362 0.21426,0.18385 2.18821,1.79701 0.51146,0.4299 1.90345,1.55511 0.79621,0.65937 1.63252,1.32426 1.063,0.87915 1.36711,1.10585 1.33118,1.09618 1.09479,0.8833 1.60487,1.32841 0.80866,0.6566 1.88686,1.57446 0.50316,0.41055 2.19651,1.84401 0.16726,0.13547 2.33197,1.985 0.19905,0.17556 2.09836,1.80807 0.59716,0.53081 1.66431,1.45005 1.03535,0.93721 1.05748,0.93583 v -41.11841 l -0.65937,-0.41884 -0.39811,-0.2502 -2.69966,-1.71822 -0.0194,-0.0125 -2.67617,-1.71822 -0.40917,-0.2654 -2.28911,-1.47355 -0.78101,-0.51146 -1.91866,-1.23441 -1.14456,-0.74507 -1.55096,-1.00079 -1.50811,-0.98421 -1.19155,-0.76581 -1.87443,-1.2192 -0.82386,-0.52252 -2.2587,-1.46111 -0.43682,-0.27784 -2.66787,-1.70302 -0.0318,-0.0194 -2.69967,-1.70716 -0.40502,-0.25711 -2.28911,-1.42656 -0.8916,-0.55845 -1.80807,-1.10171 -1.43346,-0.87915 -1.26621,-0.75751 -2.04721,-1.22612 -0.64831,-0.37875 -2.69828,-1.57861 -0.047,-0.0276 -2.65266,-1.51916 -0.80866,-0.46031 -1.88686,-1.05471 -1.67261,-0.9303 -1.02706,-0.55846 -2.63193,-1.42517 -0.0663,-0.0359 -2.69967,-1.43346 -0.96486,-0.5156 -1.73066,-0.89436 -2.10941,-1.08651 -0.58887,-0.29719 -2.69967,-1.36297 -0.63724,-0.32346 -2.05828,-1.016 -1.96427,-0.96901 -0.73539,-0.35111 -2.69828,-1.30076 -0.68287,-0.32899 -2.01265,-0.94827 -2.21033,-1.03535 -0.48796,-0.22256 -2.70105,-1.23855 -1.14317,-0.5239 -1.55096,-0.69116 -2.69967,-1.19156 -0.2267,-0.10091 -2.47158,-1.06715 -2.1578,-0.91371 -0.5391,-0.2267 -2.69829,-1.11415 -1.58966,-0.64277 -1.11,-0.44096 -2.69414,-1.05195 -1.28279,-0.4921 -1.41826,-0.53219 -2.69828,-0.98283 -1.30491,-0.46584 -1.39476,-0.48796 -2.69413,-0.91371 -1.78181,-0.58196 -0.91924,-0.2972 -2.69828,-0.84045 -2.69552,-0.79206 -0.18385,-0.0553 -2.51444,-0.71051 -2.69966,-0.7188 -2.21171,-0.55016 -0.48381,-0.12165 -2.69967,-0.64554 -2.69828,-0.59301 -2.69552,-0.54326 -0.43819,-0.0815 -2.26147,-0.43405 -2.69829,-0.46861 -2.69552,-0.41746 -2.69966,-0.37184 -2.41491,-0.29305 -0.28476,-0.0346 -2.69414,-0.29305 -2.69966,-0.2419 -2.69967,-0.19629 -2.69966,-0.14791 -2.69414,-0.094 z"
       transform="matrix(1.7135277,0,0,1.7135277,-106.10605,-97.589945)" />
    <path
       id="path55"
       d="m 297.703,194.137 -2.695,-0.223 -2.699,0.125 -2.7,0.563 -1.035,0.41 -1.66,0.8 -1.551,1.18 -1.148,1.145 -0.621,0.84 -1.098,1.984 -0.75,1.98 -0.23,0.914 -0.223,1.071 -0.246,1.984 -0.098,1.985 0.02,1.98 0.117,1.984 0.199,1.985 0.231,1.699 0.039,0.281 0.355,1.985 0.402,1.984 0.446,1.98 0.48,1.985 0.512,1.984 0.465,1.707 0.078,0.278 0.617,1.98 0.637,1.984 0.652,1.985 0.672,1.98 0.043,0.121 0.715,1.864 0.773,1.984 0.793,1.98 0.414,1.008 0.446,0.977 0.922,1.984 0.949,1.985 0.383,0.781 0.664,1.199 1.132,1.984 0.903,1.532 0.308,0.453 1.399,1.98 0.988,1.348 0.559,0.637 1.82,1.984 0.32,0.336 1.965,1.648 0.735,0.579 2.316,1.402 0.379,0.219 2.699,1.101 2.641,0.664 0.058,0.016 2.7,0.301 2.695,-0.004 2.699,-0.278 0.176,-0.035 2.523,-0.508 2.696,-0.777 1.906,-0.699 0.793,-0.305 2.699,-1.258 0.773,-0.418 1.922,-1.125 1.305,-0.859 1.395,-1.016 1.195,-0.968 1.504,-1.375 0.609,-0.61 1.707,-1.98 0.379,-0.528 0.973,-1.457 1.054,-1.984 0.672,-1.676 0.114,-0.304 0.519,-1.985 0.293,-1.984 0.09,-1.985 -0.102,-1.98 -0.277,-1.984 -0.434,-1.985 -0.203,-0.687 -0.386,-1.293 -0.731,-1.985 -0.848,-1.984 -0.734,-1.519 -0.226,-0.461 -1.098,-1.985 -1.18,-1.984 -0.191,-0.297 -1.125,-1.688 -1.387,-1.98 -0.187,-0.254 -1.34,-1.73 -1.36,-1.7 -0.238,-0.285 -1.738,-1.98 -0.719,-0.801 -1.129,-1.184 -1.57,-1.617 -0.379,-0.367 -2.094,-1.98 -0.226,-0.211 -2.051,-1.774 -0.645,-0.558 -1.8,-1.426 -0.899,-0.711 -1.766,-1.274 -0.933,-0.671 -2.012,-1.309 -0.683,-0.453 -2.625,-1.531 -0.075,-0.043 -2.699,-1.375 -1.297,-0.567 -1.402,-0.621 -2.695,-0.98 -1.383,-0.379 -1.317,-0.375 z"
       style="fill:#ca3a33;fill-opacity:1;fill-rule:evenodd;stroke:none"
       transform="matrix(1.7135277,0,0,1.7135277,-106.10605,-97.589945)"
       clip-path="url(#clipPath10)" />
    <path
       id="path57"
       d="m 181.691,195.004 -2.699,-0.324 -2.695,0.062 -1.93,0.27 -0.769,0.101 -2.7,0.641 -2.695,0.859 -0.953,0.379 -1.746,0.684 -2.699,1.238 -0.117,0.063 -2.583,1.367 -1.035,0.617 -1.66,0.973 -1.547,1.007 -1.152,0.75 -1.734,1.235 -0.965,0.687 -1.672,1.297 -1.024,0.797 -1.41,1.188 -1.289,1.089 -0.984,0.891 -1.715,1.574 -0.418,0.41 -1.988,1.985 -0.289,0.297 -1.555,1.683 -1.145,1.278 -0.605,0.707 -1.629,1.984 -0.465,0.594 -1.043,1.386 -1.418,1.985 -0.234,0.359 -1.043,1.625 -1.184,1.985 -0.472,0.875 -0.586,1.105 -0.926,1.984 -0.809,1.985 -0.379,1.133 -0.281,0.847 -0.504,1.985 -0.347,1.984 -0.18,1.98 0.012,1.985 0.207,1.984 0.425,1.985 0.653,1.98 0.015,0.039 0.918,1.945 1.2,1.985 0.582,0.789 0.945,1.191 1.754,1.875 0.113,0.11 2.313,1.984 0.269,0.207 2.571,1.777 0.128,0.079 2.7,1.507 0.82,0.395 1.875,0.848 2.699,1.011 0.434,0.125 2.265,0.633 2.696,0.539 2.699,0.297 2.699,0.031 2.695,-0.265 2.7,-0.606 1.734,-0.629 0.965,-0.371 2.699,-1.476 0.188,-0.137 2.507,-1.906 0.082,-0.075 1.993,-1.984 0.625,-0.656 1.058,-1.328 1.508,-1.985 0.133,-0.179 1.137,-1.801 1.203,-1.985 0.355,-0.605 0.715,-1.379 1,-1.98 0.969,-1.985 0.015,-0.031 0.836,-1.953 0.825,-1.985 0.812,-1.98 0.227,-0.578 0.507,-1.406 0.696,-1.985 0.679,-1.98 0.665,-1.985 0.148,-0.476 0.445,-1.508 0.563,-1.98 0.539,-1.985 0.508,-1.984 0.476,-1.985 0.168,-0.773 0.25,-1.207 0.36,-1.984 0.312,-1.985 0.25,-1.98 0.184,-1.985 0.093,-1.984 -0.007,-1.98 -0.133,-1.985 -0.297,-1.984 -0.496,-1.985 -0.516,-1.398 -0.273,-0.582 -1.278,-1.984 -1.148,-1.282 -0.902,-0.703 -1.793,-1.086 -2.68,-0.894 z"
       style="fill:#9558b2;fill-opacity:1;fill-rule:evenodd;stroke:none"
       transform="matrix(1.7135277,0,0,1.7135277,-106.10605,-97.589945)"
       clip-path="url(#clipPath9)" />
    <path
       id="path59"
       d="m 241.047,218.367 -2.699,-0.555 -2.696,-0.132 -2.699,0.281 -2.699,0.707 -0.336,0.141 -2.359,1 -1.672,0.984 -1.028,0.617 -1.777,1.363 -0.922,0.727 -1.308,1.258 -1.387,1.371 -0.527,0.613 -1.657,1.985 -0.515,0.64 -0.946,1.34 -1.351,1.984 -0.403,0.614 -0.796,1.371 -1.118,1.98 -0.785,1.457 -0.258,0.528 -0.921,1.984 -0.883,1.98 -0.633,1.504 -0.188,0.481 -0.722,1.984 -0.676,1.985 -0.629,1.98 -0.484,1.676 -0.082,0.308 -0.481,1.985 -0.422,1.98 -0.355,1.985 -0.285,1.984 -0.203,1.984 -0.118,1.981 -0.015,1.984 0.105,1.985 0.235,1.98 0.39,1.984 0.578,1.985 0.653,1.648 0.148,0.332 1.121,1.985 1.43,1.945 0.031,0.039 2.008,1.984 0.656,0.536 2.074,1.445 0.625,0.375 2.7,1.359 0.597,0.25 2.102,0.778 2.695,0.8 1.738,0.407 0.961,0.203 2.7,0.429 2.695,0.293 2.699,0.161 2.699,0.035 2.696,-0.086 2.699,-0.211 2.699,-0.34 2.695,-0.473 0.051,-0.011 2.649,-0.649 2.699,-0.828 1.371,-0.508 1.324,-0.55 2.699,-1.34 0.161,-0.094 2.539,-1.688 0.378,-0.293 2.172,-1.984 0.149,-0.16 1.469,-1.824 1.226,-1.934 0.027,-0.051 0.911,-1.98 0.675,-1.985 0.485,-1.984 0.312,-1.98 0.172,-1.985 0.043,-1.984 -0.07,-1.981 -0.164,-1.984 -0.254,-1.984 -0.332,-1.985 -0.403,-1.98 -0.468,-1.985 -0.528,-1.984 -0.406,-1.387 -0.187,-0.593 -0.68,-1.985 -0.734,-1.984 -0.782,-1.985 -0.312,-0.753 -0.559,-1.227 -0.953,-1.984 -0.996,-1.985 -0.191,-0.363 -0.946,-1.617 -1.203,-1.985 -0.551,-0.875 -0.789,-1.109 -1.465,-1.98 -0.445,-0.586 -1.23,-1.399 -1.465,-1.613 -0.402,-0.371 -2.208,-1.985 -0.089,-0.078 -2.684,-1.902 -0.016,-0.008 -2.695,-1.433 -1.48,-0.543 z"
       style="fill:#389826;fill-opacity:1;fill-rule:evenodd;stroke:none"
       transform="matrix(1.7135277,0,0,1.7135277,-106.10605,-97.589945)"
       clip-path="url(#clipPath8)" />
    <path
       id="path61"
       clip-path="url(#clipPath7)"
       style="fill:#389826;fill-opacity:1;fill-rule:evenodd;stroke:none"
       d="m 259.56218,78.000631 -2.32783,0.346961 -2.69966,0.429901 -2.69414,0.452018 -2.69967,0.476899 -1.4694,0.277846 -1.23026,0.230847 -2.69552,0.534957 -2.69828,0.562603 -2.69967,0.58472 -0.29305,0.06773 -2.40247,0.558456 -2.69966,0.648307 -2.69829,0.671806 -0.39949,0.105056 -2.29603,0.609602 -2.69966,0.738158 -2.22968,0.637248 -0.46999,0.132703 -2.69413,0.808655 -2.69967,0.832155 -0.64416,0.210113 -2.05551,0.664894 -2.69828,0.901271 -1.18741,0.414695 -1.50811,0.528046 -2.69966,0.971769 -1.28832,0.485193 -1.41135,0.526663 -2.69552,1.046414 -1.01877,0.410548 -1.67951,0.675954 -2.69967,1.116912 -0.43681,0.187995 -2.25871,0.975916 -2.28082,1.00771 -0.41746,0.187995 -2.69967,1.238556 -1.1805,0.558456 -1.51502,0.718811 -2.60152,1.26205 -0.0981,0.0512 -2.69828,1.35882 -1.11001,0.57366 -1.58551,0.82801 -2.17992,1.157 -0.51837,0.27646 -2.70104,1.4777 -0.40226,0.22946 -2.29188,1.298 -1.18741,0.68286 -1.51226,0.87916 -1.86336,1.10585 -0.83492,0.49902 -2.44256,1.48461 -0.25849,0.1562 -2.69414,1.68781 -0.21978,0.13685 -2.47988,1.59657 -0.59025,0.38705 -2.10803,1.38785 -0.8916,0.59716 -1.80531,1.21506 -1.11691,0.76995 -1.58137,1.08512 -1.27726,0.89436 -1.42241,0.99665 -1.37402,0.98835 -1.32011,0.94966 -1.41411,1.03397 -1.28694,0.93859 -1.39752,1.04227 -1.30076,0.97315 -1.32841,1.01186 -1.36711,1.03812 -1.21506,0.9455 -1.48323,1.14871 -1.0547,0.83215 -1.64496,1.29662 -0.85151,0.68701 -1.84401,1.48184 -0.61237,0.50317 -2.0873,1.70301 -0.33175,0.282 -2.36653,1.96012 -0.0207,0.0194 -2.32783,1.98501 -0.34696,0.29305 -1.94907,1.69058 -0.75059,0.64554 -1.51226,1.33532 -1.18603,1.0395 -1.05194,0.94551 -1.64772,1.46802 -0.55846,0.5156 -2.13706,1.93801 -0.0498,0.0429 -2.12185,1.98363 -0.52805,0.4921 -1.56616,1.49291 -1.13212,1.06991 -0.94136,0.91371 -1.754161,1.68781 -0.297198,0.29305 -2.00436,1.98501 -0.398108,0.39396 -1.566165,1.58966 -1.1335,1.1418 -0.811421,0.83907 -1.882716,1.93386 -0.047,0.0511 -1.859217,1.98363 -0.79345,0.8363 -1.054708,1.14871 -1.644958,1.77213 -0.186612,0.20734 -1.770749,1.98501 -0.738157,0.82386 -1.011857,1.15977 -1.686427,1.91865 -0.05529,0.0622 -1.672604,1.98501 -0.971769,1.14732 -0.691158,0.8363 -1.632517,1.98086 -0.371844,0.4617 -1.213674,1.52193 -1.485991,1.85921 -0.09676,0.1258 -1.519166,1.985 -1.082355,1.40997 -0.429901,0.56951 -1.468021,1.98501 -0.797597,1.08927 -0.648307,0.89435 -1.409963,1.98087 -0.641396,0.91785 -0.742304,1.06715 -0.315168,0.46446 v 17.84434 l 0.210112,-0.4617 0.84736,-1.83571 0.0705,-0.14515 1.027061,-1.98362 1.016004,-1.98501 0.586102,-1.10862 0.479664,-0.87086 1.125207,-1.98501 1.090648,-1.94215 0.02626,-0.0429 1.227498,-1.97948 1.206763,-1.98501 0.237759,-0.37876 1.058855,-1.60487 1.293849,-1.985 0.346961,-0.51976 1.020151,-1.46111 1.371258,-1.98362 0.30411,-0.4299 1.152853,-1.55511 1.43761,-1.97948 0.109203,-0.14514 1.433463,-1.83986 1.264821,-1.65187 0.26264,-0.33314 1.609017,-1.98363 0.823861,-1.02429 0.808656,-0.95657 1.651869,-1.98362 0.239141,-0.28476 1.495668,-1.70025 1.203998,-1.39061 0.534957,-0.59025 1.784572,-1.98363 0.374608,-0.41746 1.47355,-1.56755 1.226115,-1.3284 0.633102,-0.65107 1.89101,-1.98501 0.175554,-0.18385 1.799777,-1.79978 0.895742,-0.91509 1.09756,-1.06991 1.60072,-1.58967 0.41055,-0.3912 2.05827,-1.98362 0.23085,-0.21979 1.89792,-1.76522 0.7976,-0.7506 1.35881,-1.23026 1.34085,-1.23441 0.84736,-0.74921 1.85093,-1.66708 0.36355,-0.31793 2.25732,-1.98363 0.0788,-0.0677 2.25318,-1.91313 0.44234,-0.3829 1.92142,-1.60072 0.77686,-0.65246 1.62976,-1.33255 1.06991,-0.87916 1.37541,-1.1017 1.32011,-1.06577 1.16806,-0.91786 1.5316,-1.21091 1.00357,-0.7741 1.69472,-1.30767 0.89159,-0.6718 1.80393,-1.37126 0.83215,-0.61375 1.86613,-1.38647 0.82524,-0.59854 1.87581,-1.35882 0.87501,-0.62481 1.81912,-1.29246 0.99251,-0.6884 1.70716,-1.18326 1.17635,-0.80036 1.52193,-1.03121 1.42656,-0.9538 1.27035,-0.83907 1.75416,-1.14179 0.94412,-0.61237 2.15641,-1.37126 0.54325,-0.34419 2.64023,-1.64081 0.0539,-0.0346 2.70105,-1.60902 0.57366,-0.3359 2.12462,-1.23579 1.30767,-0.74922 1.392,-0.78516 2.14397,-1.19985 0.55017,-0.29996 2.70104,-1.45282 0.43267,-0.23084 2.26562,-1.15977 1.60072,-0.82109 1.0948,-0.5474 2.69828,-1.33117 0.21979,-0.10506 2.47987,-1.15285 1.78596,-0.83216 0.90956,-0.41054 2.69967,-1.18742 0.88192,-0.3829 1.81636,-0.75751 2.69552,-1.1252 0.25435,-0.10091 2.44532,-0.94551 2.67616,-1.0395 0.0221,-0.008 2.69552,-0.95657 2.69967,-0.96347 0.1562,-0.0553 2.54346,-0.82386 2.69552,-0.87915 0.89436,-0.277851 1.80392,-0.539103 2.69967,-0.785157 2.30847,-0.660747 0.3912,-0.103674 2.69413,-0.692541 2.69967,-0.682865 2.0555,-0.504546 0.64416,-0.14929 2.69552,-0.586103 2.69829,-0.573661 2.69966,-0.550163 0.62896,-0.121644 2.06656,-0.374608 2.69967,-0.461694 2.69828,-0.436812 2.69552,-0.41746 2.04306,-0.293051 0.6566,-0.08985 2.69967,-0.328991 2.69414,-0.308257 2.69966,-0.276463 2.69967,-0.254347 2.69966,-0.230847 2.69414,-0.199053 2.69967,-0.17279 2.29188,-0.124409 0.40778,-0.01935 2.69552,-0.102292 2.69829,-0.07741 2.69966,-0.05391 2.69552,-0.02488 h 2.69828 l 2.69967,0.02765 2.69552,0.05115 2.69966,0.07741 2.69829,0.102292 0.41884,0.01935 2.27668,0.121644 2.69828,0.164496 2.70105,0.19076 2.69413,0.211494 2.69967,0.237759 2.69828,0.252964 2.70105,0.277846 2.69414,0.297198 1.98777,0.230847 0.71189,0.08985 2.69829,0.366314 2.6969,0.380137 2.69828,0.393961 2.69967,0.406401 2.24488,0.346961 0.44925,0.07465 2.70105,0.472752 2.69829,0.481047 2.69552,0.483811 2.58493,0.468605 0.11335,0.0235 2.69966,0.547397 2.69552,0.550163 2.69967,0.547397 1.55096,0.315169 1.14732,0.258493 2.69552,0.605455 2.69967,0.601308 2.34717,0.519751 0.35111,0.0857 2.69967,0.656607 2.69552,0.6483 2.49646,0.59025 0.2032,0.0553 2.69828,0.70221 2.69552,0.69116 2.11357,0.53496 0.5861,0.1645 2.69967,0.7423 2.69413,0.73401 1.27726,0.3442 1.42241,0.41746 2.69966,0.78515 2.69552,0.76995 0.0428,0.0111 2.65544,0.82386 2.69966,0.8211 1.11415,0.3359 1.58137,0.51975 2.69967,0.87086 1.85921,0.5944 0.83907,0.28891 2.69552,0.922 2.30432,0.77272 0.39534,0.14099 1.05748,0.38014 3e-5,-36.219859 L 371.65567,78 l -3.40462,6.31e-4 h -2.86529 -2.64389 l -2.75022,3.76e-4 z m 5.76564,46.534329 -2.69414,0.0124 -2.69966,0.047 -2.69967,0.0774 -2.69966,0.1175 -2.69414,0.1562 -2.69967,0.19491 -2.69966,0.2419 -2.01127,0.21564 -0.68425,0.0664 -2.69828,0.30134 -2.69967,0.34696 -2.69552,0.40226 -2.69966,0.46169 -2.09698,0.40502 -0.60131,0.10229 -2.69552,0.52252 -2.69966,0.59439 -2.69967,0.6649 -0.35802,0.0968 -2.33611,0.57504 -2.69967,0.74093 -2.17162,0.66904 -0.52805,0.14791 -2.69828,0.82524 -2.69552,0.92892 -0.21979,0.0815 -2.47987,0.84736 -2.69967,1.03951 -0.23361,0.094 -2.46191,0.94966 -2.41767,1.03397 -0.28061,0.11335 -2.69967,1.16391 -1.48875,0.70775 -1.20677,0.54187 -2.69828,1.32564 -0.22394,0.1175 -2.47573,1.22888 -1.38646,0.75059 -1.30906,0.68425 -2.31261,1.30076 -0.38705,0.2115 -2.69828,1.56201 -0.34005,0.21012 -2.35547,1.40581 -0.91372,0.57505 -1.78457,1.11276 -1.32564,0.87225 -1.3754,0.89021 -1.60073,1.09341 -1.09341,0.73816 -1.76522,1.2427 -0.93445,0.65937 -1.81913,1.32426 -0.87915,0.64139 -1.78595,1.34362 -0.9151,0.69115 -1.66293,1.29247 -1.03121,0.80866 -1.4694,1.1722 -1.23026,0.99527 -1.20262,0.98974 -1.49566,1.24961 -0.86672,0.73401 -1.83019,1.57446 -0.46722,0.40641 -2.23106,1.97671 -0.0124,0.008 -2.22553,1.98363 -0.4617,0.41746 -1.71407,1.56755 -0.98006,0.91371 -1.14871,1.06576 -1.55234,1.48461 -0.53081,0.5004 -2.03892,1.98363 -0.12855,0.12164 -1.92142,1.85922 -0.7741,0.7741 -1.23718,1.21091 -1.46111,1.48322 -0.50039,0.5004 -1.94631,1.98086 -0.25296,0.26541 -1.70025,1.71822 -0.99527,1.04779 -0.91786,0.93722 -1.78181,1.89515 -0.0857,0.0898 -1.90622,1.97948 -0.70636,0.76581 -1.16806,1.2192 -1.52746,1.67122 -0.2972,0.3124 -1.85092,1.98087 -0.55154,0.61374 -1.28832,1.37126 -1.40997,1.57723 -0.38428,0.4064 -1.80669,1.98501 -0.50869,0.57366 -1.30076,1.40582 -1.39476,1.59381 -0.36355,0.39119 -1.77628,1.98501 -0.55984,0.64416 -1.2192,1.33532 -1.47908,1.73066 -0.23085,0.25435 -1.75416,1.98362 -0.710511,0.85566 -1.007709,1.1252 -1.649105,1.98501 -0.04285,0.0539 -1.671221,1.92972 -1.028444,1.28832 -0.597161,0.69668 -1.597959,1.97948 -0.499017,0.6649 -1.086501,1.32011 -1.473551,1.98501 -0.139614,0.20182 -1.371259,1.77766 -1.328407,1.97671 -0.0028,0.008 -1.398905,1.98363 -1.195705,1.98086 -0.09814,0.18385 -1.143177,1.80116 -1.075443,1.98362 -0.479664,1.02015 -0.547398,0.96486 -0.980063,1.97948 -0.836302,1.98362 -0.335903,0.91233 -0.492105,1.07268 -0.785156,1.98086 -0.675953,1.98501 -0.586103,1.98363 -0.156202,0.60545 -0.461694,1.37817 -0.569514,1.98086 -0.500399,1.98501 -0.436813,1.98501 -0.387048,1.97948 -0.344197,1.98362 v 0.004 l -0.393961,1.98086 -0.344197,1.98086 -0.308257,1.98501 -0.269552,1.98362 -0.246052,1.98363 -0.214259,1.98086 -0.194907,1.98501 -0.176937,1.98501 -0.158966,1.97947 -0.145143,1.98501 -0.132703,1.98363 -0.11335,1.82466 -0.01659,0.16034 -0.163113,1.98087 -0.320698,3.96725 -0.171407,1.98086 -0.181084,1.98501 -0.197671,1.985 -0.230847,1.97948 -0.273699,1.98501 -0.335903,1.98362 -0.418842,1.98501 -0.385667,1.46388 -0.952416,0.51698 -1.74725,0.61237 -0.402254,-0.61237 -0.655218,-0.8363 V 373.5 h 82.393026 l -0.39811,-0.57781 -0.94412,-1.40582 -1.34085,-1.98086 -0.40916,-0.60546 -0.92615,-1.37955 -1.33671,-1.98501 -0.43819,-0.64692 -0.88468,-1.3367 -1.3215,-1.97948 -0.4921,-0.73125 -0.81972,-1.25376 -1.30905,-1.985 -0.56675,-0.85566 -0.72987,-1.12521 -1.29384,-1.98362 -0.67458,-1.0395 -0.60683,-0.94413 -1.26897,-1.98086 -0.82386,-1.28141 -0.44096,-0.7036 -1.251,-1.985 -1.00356,-1.59243 -0.24191,-0.3912 -1.23164,-1.97948 -1.22612,-1.985 v -0.004 l -2.41352,-3.96172 -0.28476,-0.46723 -0.90265,-1.5164 -1.18327,-1.98362 -0.6096,-1.02015 -0.5626,-0.96486 -1.15977,-1.97948 -0.97729,-1.6726 -0.17971,-0.31241 -1.13626,-1.98501 -1.12935,-1.97947 -0.25297,-0.4382 -0.86395,-1.54681 -1.10585,-1.98363 -0.72986,-1.30214 -0.36632,-0.67872 -1.08235,-1.98501 -1.0713,-1.98362 -0.17555,-0.3207 -0.87777,-1.66431 -1.0478,-1.97948 -0.7741,-1.47769 -0.25434,-0.50731 -1.01048,-1.98501 -0.99941,-1.98086 -0.43405,-0.85428 -0.5474,-1.12935 -0.964859,-1.98362 -0.945505,-1.98087 -0.237759,-0.50039 -0.688394,-1.48461 -0.901271,-1.98363 -0.883301,-1.98501 -0.2267,-0.51145 -0.624807,-1.46802 -0.828008,-1.98501 -0.800362,-1.98501 -0.446488,-1.11277 -0.323463,-0.86809 -0.73401,-1.98363 -0.696688,-1.98362 -0.651072,-1.98501 -0.288904,-0.92892 -0.316551,-1.05194 -0.554309,-1.98501 -0.492105,-1.98362 -0.427136,-1.97948 -0.351109,-1.98501 -0.265404,-1.98501 -0.175555,-1.98086 -0.08294,-1.98362 0.0235,-1.98363 0.128555,-1.98501 0.246053,-1.98086 0.382901,-1.98501 0.532193,-1.98362 0.702217,-1.97948 0.649689,-1.46111 0.205965,-0.5239 0.934447,-1.98362 1.112765,-1.98501 0.44096,-0.71051 0.742304,-1.27035 1.281408,-1.98363 0.675953,-0.969 0.671807,-1.016 1.407199,-1.97948 0.62066,-0.82801 0.823861,-1.157 1.512263,-1.98501 0.3594,-0.45616 1.15147,-1.52332 1.54681,-1.9228 0.0512,-0.0622 1.56202,-1.98363 1.0865,-1.298 0.54601,-0.68701 1.64911,-1.98086 0.5004,-0.5861 1.15561,-1.39752 1.54405,-1.77766 0.17141,-0.20735 1.69057,-1.97948 0.83631,-0.94274 0.89574,-1.04227 1.77628,-1.985 0.0276,-0.0263 1.70993,-1.95321 0.98559,-1.07959 0.80727,-0.90542 1.8371,-1.98363 0.0539,-0.0594 1.75002,-1.92556 0.94965,-1.0008 0.90265,-0.98007 1.79287,-1.87027 0.1092,-0.11335 1.88272,-1.98501 0.70774,-0.72157 1.21091,-1.25791 1.48738,-1.49705 0.4769,-0.48795 1.985,-1.98501 0.23362,-0.23085 1.76245,-1.75278 0.93583,-0.9068 1.09894,-1.07406 1.60211,-1.51917 0.48381,-0.46445 2.12462,-1.98501 0.0857,-0.0788 2.05136,-1.90207 0.64831,-0.58887 1.54267,-1.39476 1.15561,-1.02429 1.09065,-0.96072 1.60626,-1.38646 0.6953,-0.59301 2.00298,-1.68781 0.3594,-0.2972 2.34026,-1.91036 0.0899,-0.0733 2.49231,-1.985 0.11197,-0.0899 2.45776,-1.89101 0.24329,-0.18661 2.41767,-1.79701 0.28061,-0.20735 2.47573,-1.77766 0.22394,-0.1562 2.64852,-1.82466 0.0456,-0.0346 2.70104,-1.79701 0.24191,-0.15205 2.45638,-1.57446 0.6718,-0.41055 2.02372,-1.24132 1.27311,-0.74231 1.42517,-0.8363 2.06795,-1.14456 0.63171,-0.35525 2.69552,-1.42932 0.39811,-0.19905 2.30156,-1.1805 1.69887,-0.80451 0.99941,-0.4852 2.69552,-1.22196 0.6566,-0.2737 2.04307,-0.89436 2.69828,-1.06992 0.0594,-0.0194 2.63608,-1.0243 2.69967,-0.93721 0.0705,-0.0235 2.62917,-0.89021 2.69552,-0.82109 0.99527,-0.26817 1.70301,-0.5004 2.69967,-0.71051 2.69967,-0.62619 0.71051,-0.14791 1.98362,-0.44511 2.69967,-0.52804 2.69966,-0.46032 2.69552,-0.39119 1.30076,-0.16035 1.39753,-0.18661 2.69966,-0.29305 2.69552,-0.2267 2.69967,-0.17279 2.69828,-0.11197 2.69552,-0.0594 2.69966,-0.004 2.69967,0.047 2.69414,0.094 2.69966,0.14791 2.69967,0.19629 2.69966,0.2419 2.69414,0.29305 0.28476,0.0346 2.41491,0.29305 2.69966,0.37184 2.69552,0.41746 2.69829,0.46861 2.26147,0.43405 0.43819,0.0815 2.69552,0.54326 2.69828,0.59301 2.69967,0.64554 0.48381,0.12165 2.21171,0.55016 2.69966,0.7188 2.51444,0.71051 0.18385,0.0553 2.69552,0.79206 2.69828,0.84045 0.91924,0.2972 1.78181,0.58196 2.69413,0.91371 1.39476,0.48796 1.30491,0.46584 2.69828,0.98283 1.41826,0.53219 1.28279,0.4921 2.69414,1.05195 1.11,0.44096 1.58966,0.64277 2.69829,1.11415 0.5391,0.2267 2.1578,0.91371 2.47158,1.06715 0.2267,0.10091 2.69967,1.19156 1.55096,0.69116 1.14317,0.5239 2.70105,1.23855 0.48796,0.22256 2.21033,1.03535 2.01265,0.94827 0.68287,0.32899 2.69828,1.30076 0.73539,0.35111 1.96427,0.96901 2.05828,1.016 0.63724,0.32346 2.69967,1.36297 0.58887,0.29719 2.10941,1.08651 1.73066,0.89436 0.96486,0.5156 2.69967,1.43346 0.0663,0.0359 2.63193,1.42517 1.02706,0.55846 1.67261,0.9303 1.88686,1.05471 0.80866,0.46031 2.65266,1.51916 0.047,0.0276 2.69828,1.57861 0.64831,0.37875 2.04721,1.22612 1.26621,0.75751 1.43346,0.87915 1.80807,1.10171 0.8916,0.55845 2.28911,1.42656 0.40502,0.25711 2.69967,1.70716 0.0318,0.0194 2.66787,1.70302 0.43682,0.27784 2.2587,1.46111 0.82386,0.52252 1.87443,1.2192 1.19155,0.76581 1.50811,0.98421 1.55096,1.00079 1.14456,0.74507 1.91866,1.23441 0.78101,0.51146 2.28911,1.47355 0.40917,0.2654 2.67617,1.71822 0.0194,0.0125 2.69966,1.71822 0.39811,0.2502 0.65937,0.41884 V 157.4355 l -0.28891,-0.10782 -0.76857,-0.28476 -2.69966,-0.99942 -1.94907,-0.69945 -0.74645,-0.2654 -2.69828,-0.9621 -2.20342,-0.75336 -0.49625,-0.17279 -2.69552,-0.92477 -2.69137,-0.88606 -0.008,-0.004 -2.69829,-0.89851 -2.69552,-0.86809 -0.66766,-0.21426 -2.032,-0.65246 -2.69967,-0.84736 -1.55096,-0.48104 -1.14317,-0.35802 -2.69967,-0.8363 -2.63332,-0.78931 -0.0663,-0.0207 -2.69552,-0.82801 -2.69828,-0.80036 -1.12935,-0.33591 -1.57031,-0.4686 -2.69552,-0.79622 -2.50062,-0.71465 -0.19905,-0.0636 -2.69828,-0.79345 -2.69967,-0.76442 -1.29247,-0.36355 -1.40305,-0.40226 -2.69828,-0.76165 -2.69967,-0.73125 -0.32346,-0.0899 -2.37206,-0.65522 -2.69966,-0.72295 -2.34026,-0.60546 -0.35802,-0.094 -2.69552,-0.70637 -2.69829,-0.67319 -2.10665,-0.50731 -0.5944,-0.1479 -2.69413,-0.65384 -2.69967,-0.62066 -2.57802,-0.56122 -0.12026,-0.0276 -2.6969,-0.59439 -2.69829,-0.56261 -2.69966,-0.52666 -1.45696,-0.2737 -1.23718,-0.23914 -2.70105,-0.49902 -2.69828,-0.46584 -2.69967,-0.42852 -2.33197,-0.34834 -0.36216,-0.0581 -2.70105,-0.3981 -2.69828,-0.37185 -2.69552,-0.3359 -2.69829,-0.30826 -2.69966,-0.2737 -2.57802,-0.23776 -0.1175,-0.0124 -2.69967,-0.23775 -2.69828,-0.21012 -2.69552,-0.17693 -2.69966,-0.14929 -2.69829,-0.11197 -2.69552,-0.0871 -2.69966,-0.0539 z"
       sodipodi:nodetypes="ccccccccccccccccccccccccccccccccccccccccccccccccccccccccccccccccccccccccccccccccccccccccccccccccccccccccccccccccccccccccccccccccccccccccccccccccccccccccccccccccccccccccccccccccccccccccccccccccccccccccccccccccccccccccccccccccccccccccccccccccccccccccccccccccccccccccccccccccccccccccccccccccccccccccccccccccccccccccccccccccccccccccccccccccccccccccccccccccccccccccccccccccccccccccccccccccccccccccccccccccccccccccccccccccccccccccccccccccccccccccccccccccccccccccccccccccccccccccccccccccccccccccccccccccccccccccccccccccccccccccccccccccccccccccccccccccccccccccccccccccccccccccccccccccccccccccccccccccccccccccccccccccccccccccccccccccccccccccccccccccccccccccccccccccccccccccccccccccccccccccccccccccccccccccccccccccccccccccccccccccccccccccccccccccccccccccccccccccccccccccccccccccccccccccccccccccccccccccccccccccccccccccccccccccccccccccccccccccccccccccccccccccccccccccccccccccccccccccccccccccccccccccccccccccccccccc"
       transform="matrix(1.7135277,0,0,1.7135277,-106.10605,-97.589945)" />
    <path
       id="path63"
       clip-path="url(#clipPath6)"
       style="fill:#389826;fill-opacity:1;fill-rule:evenodd;stroke:none"
       d="m 162.15165,78.000631 -2.04721,1.237174 -1.16667,0.746451 -1.52747,0.945505 -1.59795,1.035356 -1.10171,0.699453 -1.94077,1.284172 -0.75751,0.489341 -2.22001,1.495667 -0.4769,0.316551 -2.42873,1.667075 -0.26955,0.181083 -2.57802,1.799777 -0.12165,0.08156 -2.67201,1.903451 -0.0221,0.01935 -2.70105,1.949068 -0.0138,0.0152 -2.68446,1.972567 -0.008,0.0083 -2.64714,1.983626 -0.0401,0.03179 -2.56282,1.953214 -0.13547,0.102292 -2.43011,1.878566 -0.26955,0.21012 -2.25318,1.77351 -0.44234,0.34834 -2.04721,1.63667 -0.65246,0.51975 -1.80392,1.46387 -0.89436,0.7271 -1.5247,1.25376 -1.17082,0.97315 -1.2192,1.01186 -1.48046,1.24547 -0.87501,0.73816 -1.82328,1.55925 -0.49625,0.42161 -2.20341,1.91036 -0.0857,0.0733 -2.29326,1.98501 -0.31655,0.27785 -1.95736,1.70716 -0.74231,0.65522 -1.49981,1.32426 -1.19847,1.07544 -1.020152,0.90956 -1.675369,1.52747 -0.50731,0.45616 -2.156415,1.98086 -0.03594,0.0318 -2.148121,1.95322 -0.551544,0.50731 -1.604871,1.47631 -1.089266,1.0243 -1.039503,0.95656 -1.660163,1.58138 -0.434047,0.40225 -2.08177,1.98501 -0.183849,0.17555 -1.917274,1.80946 -0.778244,0.75751 -1.292467,1.22196 -1.405817,1.38232 -0.628954,0.60269 -2.008507,1.98363 -0.06221,0.0594 -1.985007,1.92142 -0.710512,0.7188 -1.30076,1.26621 -1.398905,1.42102 -0.573662,0.5626 -1.949068,1.98086 -0.175554,0.18247 -1.809453,1.80116 -0.886066,0.9303 -1.054708,1.05471 -1.644958,1.73066 -0.250199,0.25296 -0.807273,0.83354 v 12.00404 l 0.828008,-0.93859 0.229464,-0.25435 1.512256,-1.72928 1.18741,-1.29385 0.609602,-0.69115 1.827424,-1.98087 0.258493,-0.27646 1.563401,-1.70716 1.134883,-1.19571 0.731245,-0.7893 1.910363,-1.98086 0.05806,-0.0581 1.831571,-1.92556 0.863948,-0.87501 1.069914,-1.11 1.629752,-1.62837 0.346962,-0.35526 1.980861,-1.98086 0.370461,-0.36355 1.621458,-1.62007 1.07406,-1.03951 0.957946,-0.9455 1.74172,-1.66708 0.324845,-0.31378 2.077623,-1.98363 0.297198,-0.28199 1.788719,-1.70302 0.905418,-0.84321 1.215057,-1.13626 1.484608,-1.36712 0.66766,-0.61789 2.032006,-1.84401 0.152055,-0.141 2.190977,-1.98363 0.35249,-0.3124 1.86198,-1.66846 0.8363,-0.73815 1.41411,-1.24547 1.28556,-1.11691 0.99665,-0.8681 1.69887,-1.46111 0.61236,-0.51975 2.0873,-1.76937 0.25711,-0.21426 2.37482,-1.985 0.0664,-0.0539 2.32782,-1.92557 0.37184,-0.30549 2.06242,-1.67952 0.6331,-0.51146 1.83986,-1.47355 0.85842,-0.68286 1.65602,-1.30076 1.04365,-0.81695 1.51225,-1.16391 1.18327,-0.91372 1.41411,-1.06991 1.28555,-0.97315 1.35882,-1.01186 1.33947,-0.99665 1.3519,-0.98421 1.34362,-0.98282 1.40305,-1.0008 1.29523,-0.9303 1.50534,-1.05471 1.19571,-0.84045 1.66431,-1.14318 1.02982,-0.71189 1.89516,-1.268968 0.80451,-0.546015 2.18821,-1.438992 0.51007,-0.338668 2.55591,-1.644958 0.141,-0.08985 2.69828,-1.707162 0.30134,-0.183849 2.39832,-1.49152 0.82387,-0.492105 1.87027,-1.141794 1.44591,-0.843214 1.25514,-0.746451 2.15918,-1.234409 0.5391,-0.315169 2.69967,-1.512255 0.28476,-0.156202 2.40938,-1.335318 1.22749,-0.64969 1.47355,-0.796214 2.28774,-1.187411 0.41055,-0.215642 2.69552,-1.374023 0.80036,-0.391196 1.89792,-0.953799 2.1578,-1.029826 h -2.1578 z"
       transform="matrix(1.7135277,0,0,1.7135277,-106.10605,-97.589945)" />
    <path
       id="path67"
       clip-path="url(#clipPath4)"
       style="fill:#518928;fill-opacity:1;fill-rule:evenodd;stroke:none"
       d="m 61.922586,78.000631 v 5.491947 l 1.057472,-0.919241 0.699453,-0.60822 2.000213,-1.715456 0.308257,-0.265405 2.336116,-1.983625 z"
       transform="matrix(1.7135277,0,0,1.7135277,-106.10605,-97.589945)" />
    <path
       id="path69"
       clip-path="url(#clipPath3)"
       style="fill:#9558b2;fill-opacity:1;fill-rule:evenodd;stroke:none"
       transform="matrix(1.7135277,0,0,1.7135277,-106.10605,-97.589945)"
       d="m 114.65938,78.000631 -0.41746,0.28061 -2.49923,1.703015 -0.19906,0.13685 -2.66511,1.844011 -0.0345,0.0235 -2.69552,1.906216 -0.0746,0.05391 -2.62502,1.886864 -0.1327,0.09814 -2.56558,1.871658 -0.14791,0.111968 -2.547611,1.888245 -0.124408,0.09261 -2.575258,1.942156 -0.05391,0.04285 -2.586316,1.983625 -0.05944,0.04285 -2.471584,1.938009 -0.222553,0.175555 -2.267,1.808071 -0.432666,0.344197 -2.015418,1.64081 -0.684248,0.546019 -1.730661,1.43484 -0.964857,0.79345 -1.409964,1.19018 -1.28832,1.07821 -1.054708,0.9068 -1.644958,1.39752 -0.663512,0.5861 -2.032007,1.75831 -0.250199,0.22255 -2.229678,1.98501 -0.219788,0.19491 -1.953215,1.78872 -0.745069,0.6718 -1.398905,1.30906 -1.296614,1.1957 -0.828008,0.78792 -1.871658,1.75831 -0.233611,0.2267 -0.823861,0.80174 v 41.67964 l 0.807273,-0.83354 0.250199,-0.25296 1.644958,-1.73066 1.054708,-1.05471 0.886066,-0.9303 1.809453,-1.80116 0.175554,-0.18247 1.949068,-1.98086 0.573662,-0.5626 1.398905,-1.42102 1.30076,-1.26621 0.710512,-0.7188 1.985007,-1.92142 0.06221,-0.0594 2.008507,-1.98363 0.628954,-0.60269 1.405817,-1.38232 1.292467,-1.22196 0.778244,-0.75751 1.917274,-1.80946 0.183849,-0.17555 2.08177,-1.98501 0.434047,-0.40225 1.660163,-1.58138 1.039503,-0.95656 1.089266,-1.0243 1.604871,-1.47631 0.551544,-0.50731 2.148121,-1.95322 0.03594,-0.0318 2.156415,-1.98086 0.50731,-0.45616 1.675369,-1.52747 1.020149,-0.90956 1.19847,-1.07544 1.49981,-1.32426 0.74231,-0.65522 1.95736,-1.70716 0.31655,-0.27785 2.29326,-1.98501 0.0857,-0.0733 2.20341,-1.91036 0.49625,-0.42161 1.82328,-1.55925 0.87501,-0.73816 1.48046,-1.24547 1.2192,-1.01186 1.17082,-0.97315 1.5247,-1.25376 0.89436,-0.7271 1.80392,-1.46387 0.65246,-0.51975 2.04721,-1.63667 0.44234,-0.34834 2.25318,-1.77351 0.26955,-0.21012 2.43011,-1.878567 0.13547,-0.102292 2.56282,-1.953214 0.0401,-0.03179 2.64714,-1.983626 0.008,-0.0083 2.68446,-1.972567 0.0138,-0.0152 2.70105,-1.949068 0.0221,-0.01935 2.67201,-1.903451 0.12165,-0.08156 2.57802,-1.799777 0.26955,-0.181083 2.42873,-1.667075 0.4769,-0.316551 2.22001,-1.495667 0.75751,-0.489341 1.94077,-1.284172 1.10171,-0.699453 1.59795,-1.035356 1.52747,-0.945505 1.16667,-0.746451 2.04721,-1.237174 z m -15.258024,0 -1.346377,1.018768 -1.253762,0.964857 -1.445904,1.105854 -1.125206,0.875007 -1.574459,1.223351 -0.964858,0.760274 -1.729279,1.362965 -0.774098,0.622043 -1.925568,1.535755 -0.550162,0.447871 -2.149504,1.738955 -0.295815,0.241905 -2.399703,1.972567 -0.01521,0.01244 -2.372057,1.983625 -0.311021,0.262641 -2.027859,1.71822 -0.671807,0.570897 -1.64081,1.412729 -1.054709,0.9068 -1.230262,1.078207 -1.469403,1.277258 -0.792068,0.7036 -1.906216,1.68228 -0.331756,0.30135 -2.207561,1.98501 -0.156202,0.13961 -2.00436,1.84401 -0.695306,0.6331 -1.057472,0.98698 v 11.08065 l 0.823861,-0.80174 0.233611,-0.2267 1.871658,-1.75831 0.828008,-0.78792 1.296614,-1.1957 1.398905,-1.30906 0.745069,-0.6718 1.953215,-1.78872 0.219788,-0.19491 2.229678,-1.98501 0.250199,-0.22255 2.032007,-1.75831 0.663512,-0.5861 1.644958,-1.39752 1.054708,-0.9068 1.28832,-1.07821 1.409964,-1.19018 0.964857,-0.79345 1.730661,-1.43484 0.684248,-0.546018 2.015418,-1.64081 0.432666,-0.344197 2.267,-1.808071 0.222553,-0.175555 2.471584,-1.938009 0.05944,-0.04285 2.586316,-1.983625 0.05391,-0.04285 2.575258,-1.942156 0.124408,-0.09261 2.547614,-1.888245 0.14791,-0.111968 2.56558,-1.871658 0.1327,-0.09814 2.62502,-1.886864 0.0746,-0.05391 2.69552,-1.906216 0.0345,-0.0235 2.66511,-1.844011 0.19906,-0.13685 2.49923,-1.703015 0.41746,-0.28061 z" />
    <path
       id="path73"
       clip-path="url(#clipPath2)"
       style="fill:#9558b2;fill-opacity:1;fill-rule:evenodd;stroke:none"
       d="m 281.51614,89.620391 -2.69552,0.02488 -2.69966,0.05391 -2.69829,0.07741 -2.69552,0.102292 -0.40778,0.01935 -2.29188,0.124409 -2.69967,0.17279 -2.69414,0.199053 -2.69966,0.230847 -2.69967,0.254347 -2.69966,0.276463 -2.69414,0.308257 -2.69967,0.328991 -0.6566,0.08985 -2.04306,0.293051 -2.69552,0.41746 -2.69828,0.436812 -2.69967,0.461694 -2.06656,0.374608 -0.62896,0.121644 -2.69966,0.550163 -2.69829,0.573661 -2.69552,0.586103 -0.64416,0.14929 -2.0555,0.504546 -2.69967,0.682865 -2.69413,0.692541 -0.3912,0.103674 -2.30847,0.660747 -2.69967,0.785157 -1.80392,0.539103 -0.89436,0.277851 -2.69552,0.87915 -2.54346,0.82386 -0.1562,0.0553 -2.69967,0.96347 -2.69552,0.95657 -0.0221,0.008 -2.67616,1.0395 -2.44532,0.94551 -0.25435,0.10091 -2.69552,1.1252 -1.81636,0.75751 -0.88192,0.3829 -2.69967,1.18742 -0.90956,0.41054 -1.78596,0.83216 -2.47987,1.15285 -0.21979,0.10506 -2.69828,1.33117 -1.0948,0.5474 -1.60072,0.82109 -2.26562,1.15977 -0.43267,0.23084 -2.70104,1.45282 -0.55017,0.29996 -2.14397,1.19985 -1.392,0.78516 -1.30767,0.74922 -2.12462,1.23579 -0.57366,0.3359 -2.70105,1.60902 -0.0539,0.0346 -2.64023,1.64081 -0.54325,0.34419 -2.15641,1.37126 -0.94412,0.61237 -1.75416,1.14179 -1.27035,0.83907 -1.42656,0.9538 -1.52193,1.03121 -1.17635,0.80036 -1.70716,1.18326 -0.99251,0.6884 -1.81912,1.29246 -0.87501,0.62481 -1.87581,1.35882 -0.82524,0.59854 -1.86613,1.38647 -0.83215,0.61375 -1.80393,1.37126 -0.89159,0.6718 -1.69472,1.30767 -1.00357,0.7741 -1.5316,1.21091 -1.16806,0.91786 -1.32011,1.06577 -1.37541,1.1017 -1.06991,0.87916 -1.62976,1.33255 -0.77686,0.65246 -1.92142,1.60072 -0.44234,0.3829 -2.25318,1.91313 -0.0788,0.0677 -2.25732,1.98363 -0.36355,0.31793 -1.85093,1.66708 -0.84736,0.74921 -1.34085,1.23441 -1.35881,1.23026 -0.7976,0.7506 -1.89792,1.76522 -0.23085,0.21979 -2.05827,1.98362 -0.41055,0.3912 -1.60072,1.58967 -1.09756,1.06991 -0.895744,0.91509 -1.799777,1.79978 -0.175554,0.18385 -1.89101,1.98501 -0.633102,0.65107 -1.226115,1.3284 -1.47355,1.56755 -0.374608,0.41746 -1.784572,1.98363 -0.534957,0.59025 -1.203998,1.39061 -1.495668,1.70025 -0.239141,0.28476 -1.651869,1.98362 -0.808656,0.95657 -0.823861,1.02429 -1.609017,1.98363 -0.26264,0.33314 -1.264821,1.65187 -1.433463,1.83986 -0.109203,0.14514 -1.43761,1.97948 -1.152853,1.55511 -0.30411,0.4299 -1.371258,1.98362 -1.020151,1.46111 -0.346961,0.51976 -1.293849,1.985 -1.058855,1.60487 -0.237759,0.37876 -1.206763,1.98501 -1.227498,1.97948 -0.02626,0.0429 -1.090648,1.94215 -1.125207,1.98501 -0.479664,0.87086 -0.586102,1.10862 -1.016004,1.98501 -1.027061,1.98362 -0.0705,0.14515 -0.84736,1.83571 -0.210112,0.4617 v 93.89805 l 0.655218,0.8363 0.402254,0.61237 1.74725,-0.61237 0.952416,-0.51698 0.385667,-1.46388 0.418842,-1.98501 0.335903,-1.98362 0.273699,-1.98501 0.230847,-1.97948 0.197671,-1.985 0.181084,-1.98501 0.171407,-1.98086 0.320698,-3.96725 0.163113,-1.98087 0.01659,-0.16034 0.11335,-1.82466 0.132703,-1.98363 0.145143,-1.98501 0.158966,-1.97947 0.176937,-1.98501 0.194907,-1.98501 0.214259,-1.98086 0.246052,-1.98363 0.269552,-1.98362 0.308257,-1.98501 0.344197,-1.98086 0.393961,-1.98086 v -0.004 l 0.344197,-1.98362 0.387048,-1.97948 0.436813,-1.98501 0.500399,-1.98501 0.569514,-1.98086 0.461694,-1.37817 0.156202,-0.60545 0.586103,-1.98363 0.675953,-1.98501 0.785156,-1.98086 0.492105,-1.07268 0.335903,-0.91233 0.836302,-1.98362 0.980063,-1.97948 0.547398,-0.96486 0.479664,-1.02015 1.075443,-1.98362 1.143177,-1.80116 0.09814,-0.18385 1.195705,-1.98086 1.398905,-1.98363 0.0028,-0.008 1.328407,-1.97671 1.371259,-1.77766 0.139614,-0.20182 1.473551,-1.98501 1.086501,-1.32011 0.499017,-0.6649 1.597959,-1.97948 0.597161,-0.69668 1.028444,-1.28832 1.671221,-1.92972 0.04285,-0.0539 1.649105,-1.98501 1.007709,-1.1252 0.710511,-0.85566 1.754155,-1.98362 0.23085,-0.25435 1.47908,-1.73066 1.2192,-1.33532 0.55984,-0.64416 1.77628,-1.98501 0.36355,-0.39119 1.39476,-1.59381 1.30076,-1.40582 0.50869,-0.57366 1.80669,-1.98501 0.38428,-0.4064 1.40997,-1.57723 1.28832,-1.37126 0.55154,-0.61374 1.85092,-1.98087 0.2972,-0.3124 1.52746,-1.67122 1.16806,-1.2192 0.70636,-0.76581 1.90622,-1.97948 0.0857,-0.0898 1.78181,-1.89515 0.91786,-0.93722 0.99527,-1.04779 1.70025,-1.71822 0.25296,-0.26541 1.94631,-1.98086 0.50039,-0.5004 1.46111,-1.48322 1.23718,-1.21091 0.7741,-0.7741 1.92142,-1.85922 0.12855,-0.12164 2.03892,-1.98363 0.53081,-0.5004 1.55234,-1.48461 1.14871,-1.06576 0.98006,-0.91371 1.71407,-1.56755 0.4617,-0.41746 2.22553,-1.98363 0.0124,-0.008 2.23106,-1.97671 0.46722,-0.40641 1.83019,-1.57446 0.86672,-0.73401 1.49566,-1.24961 1.20262,-0.98974 1.23026,-0.99527 1.4694,-1.1722 1.03121,-0.80866 1.66293,-1.29247 0.9151,-0.69115 1.78595,-1.34362 0.87915,-0.64139 1.81913,-1.32426 0.93445,-0.65937 1.76522,-1.2427 1.09341,-0.73816 1.60073,-1.09341 1.3754,-0.89021 1.32564,-0.87225 1.78457,-1.11276 0.91372,-0.57505 2.35547,-1.40581 0.34005,-0.21012 2.69828,-1.56201 0.38705,-0.2115 2.31261,-1.30076 1.30906,-0.68425 1.38646,-0.75059 2.47573,-1.22888 0.22394,-0.1175 2.69828,-1.32564 1.20677,-0.54187 1.48875,-0.70775 2.69967,-1.16391 0.28061,-0.11335 2.41767,-1.03397 2.46191,-0.94966 0.23361,-0.094 2.69967,-1.03951 2.47987,-0.84736 0.21979,-0.0815 2.69552,-0.92892 2.69828,-0.82524 0.52805,-0.14791 2.17162,-0.66904 2.69967,-0.74093 2.33611,-0.57504 0.35802,-0.0968 2.69967,-0.6649 2.69966,-0.59439 2.69552,-0.52252 0.60131,-0.10229 2.09698,-0.40502 2.69966,-0.46169 2.69552,-0.40226 2.69967,-0.34696 2.69828,-0.30134 0.68425,-0.0664 2.01127,-0.21564 2.69966,-0.2419 2.69967,-0.19491 2.69414,-0.1562 2.69966,-0.1175 2.69967,-0.0774 2.69966,-0.047 2.69414,-0.0124 2.69967,0.0235 2.69966,0.0539 2.69552,0.0871 2.69829,0.11197 2.69966,0.14929 2.69552,0.17693 2.69828,0.21012 2.69967,0.23775 0.1175,0.0124 2.57802,0.23776 2.69966,0.2737 2.69829,0.30826 2.69552,0.3359 2.69828,0.37185 2.70105,0.3981 0.36216,0.0581 2.33197,0.34834 2.69967,0.42852 2.69828,0.46584 2.70105,0.49902 1.23719,0.23914 1.45695,0.2737 2.69966,0.52666 2.69829,0.56261 2.69691,0.59439 0.12025,0.0276 2.57802,0.56122 2.69967,0.62066 2.69413,0.65384 0.5944,0.1479 2.10665,0.50731 2.69829,0.67319 2.69552,0.70637 0.35802,0.094 2.34026,0.60546 2.69966,0.72295 2.37206,0.65522 0.32346,0.0899 2.69967,0.73125 2.69828,0.76165 1.40305,0.40226 1.29247,0.36355 2.69967,0.76442 2.69828,0.79345 0.19905,0.0636 2.50063,0.71465 2.69552,0.79622 1.57031,0.4686 1.12935,0.33591 2.69828,0.80036 2.69551,0.82801 0.0663,0.0207 2.63332,0.78931 2.69967,0.8363 1.14317,0.35802 1.55096,0.48104 2.69967,0.84736 2.032,0.65246 0.66766,0.21426 2.69552,0.86809 2.69829,0.89851 0.008,0.004 2.69137,0.88606 2.69552,0.92477 0.49624,0.17279 2.20342,0.75336 2.69828,0.9621 0.74645,0.2654 1.94907,0.69945 2.69966,0.99942 0.76857,0.28476 0.28891,0.10782 v -43.21539 l -1.05748,-0.38014 -0.39534,-0.14099 -2.30432,-0.77272 -2.69552,-0.922 -0.83907,-0.28891 -1.85921,-0.5944 -2.69967,-0.87086 -1.58137,-0.51975 -1.11415,-0.3359 -2.69966,-0.8211 -2.65544,-0.82386 -0.0428,-0.0111 -2.69552,-0.76995 -2.69966,-0.78515 -1.42241,-0.41746 -1.27726,-0.3442 -2.69413,-0.73401 -2.69967,-0.7423 -0.5861,-0.1645 -2.11357,-0.53496 -2.69551,-0.69116 -2.69829,-0.70221 -0.20319,-0.0553 -2.49647,-0.59025 -2.69551,-0.6483 -2.69968,-0.656607 -0.35111,-0.0857 -2.34717,-0.519751 -2.69967,-0.601308 -2.69552,-0.605455 -1.14732,-0.258493 -1.55095,-0.315169 -2.69968,-0.547397 -2.69552,-0.550163 -2.69966,-0.547397 -0.11335,-0.0235 -2.58493,-0.468605 -2.69552,-0.483811 -2.69828,-0.481047 -2.70105,-0.472752 -0.44926,-0.07465 -2.24488,-0.346961 -2.69967,-0.406401 -2.69828,-0.393961 -2.6969,-0.380137 -2.69829,-0.366314 -0.71189,-0.08985 -1.98777,-0.230847 -2.69414,-0.297198 -2.70105,-0.277846 -2.69828,-0.252964 -2.69967,-0.237759 -2.69413,-0.211494 -2.70105,-0.19076 -2.69828,-0.164496 -2.27668,-0.121644 -0.41884,-0.01935 -2.69829,-0.102292 -2.69966,-0.07741 -2.69552,-0.05115 -2.69967,-0.02765 z"
       transform="matrix(1.7135277,0,0,1.7135277,-106.10605,-97.589945)" />
  </g>
</svg>
